<svg width="117" height="66" viewBox="0 0 117 66" fill="none" xmlns="http://www.w3.org/2000/svg">
<mask id="mask0_6315_22478" style="mask-type:luminance" maskUnits="userSpaceOnUse" x="0" y="0" width="117" height="66">
<path d="M116.429 0H0V65.8553H116.429V0Z" fill="white"/>
</mask>
<g mask="url(#mask0_6315_22478)">
<path d="M15.7132 14.0568H14.3301V3.83289H15.7132V14.0568ZM27.0201 11.2856C27.0201 13.0395 25.2697 14.1807 22.8395 14.1807C20.9787 14.1979 19.1828 13.611 17.8307 12.5441L18.6903 11.6964C19.2367 12.1649 19.8904 12.5368 20.6128 12.7899C21.335 13.043 22.1109 13.1724 22.8943 13.17C24.5352 13.17 25.6213 12.4397 25.6213 11.4291C25.6213 10.4772 25.0118 9.93592 22.4332 9.47297C19.6202 8.95787 18.323 8.16891 18.323 6.51926C18.323 4.90875 20.0187 3.72857 22.3473 3.72857C23.9194 3.69061 25.4528 4.1388 26.6529 4.98699L25.8715 5.87376C24.8926 5.16134 23.6383 4.76773 22.3395 4.7653C20.7766 4.7653 19.7296 5.49557 19.7296 6.41494C19.7296 7.37342 20.3625 7.91461 23.0584 8.37104C25.7542 8.82746 27.0436 9.6751 27.0436 11.2661L27.0201 11.2856ZM39.335 3.66336C38.5057 3.65799 37.6835 3.79142 36.917 4.05576C36.1506 4.3201 35.4554 4.70998 34.8725 5.20236C34.2898 5.69474 33.8312 6.27963 33.5239 6.92243C33.2167 7.56524 33.067 8.25292 33.0838 8.94483V8.97743C33.0864 9.66244 33.2506 10.3403 33.5671 10.9724C33.8836 11.6044 34.3463 12.1783 34.9285 12.6611C35.5108 13.144 36.2014 13.5264 36.9608 13.7866C37.7203 14.0467 38.5337 14.1796 39.3546 14.1774C40.1755 14.1752 40.9879 14.0382 41.7453 13.774C42.5028 13.51 43.1905 13.1239 43.7691 12.638C44.3478 12.1521 44.8062 11.5759 45.1178 10.9423C45.4296 10.3086 45.5888 9.62983 45.5862 8.94483C45.6063 8.25341 45.4588 7.56572 45.1524 6.92309C44.846 6.28046 44.387 5.69616 43.8032 5.20528C43.2192 4.7144 42.5224 4.32708 41.7546 4.06659C40.9868 3.80611 40.1638 3.67781 39.335 3.68945V3.66336ZM44.1328 9.00351C44.1602 9.54427 44.0565 10.0841 43.8279 10.5907C43.5993 11.0971 43.2507 11.56 42.8027 11.9514C42.3548 12.3428 41.8167 12.6549 41.221 12.8687C40.6251 13.0826 39.9837 13.1939 39.335 13.1961C38.6826 13.1912 38.0379 13.0772 37.4393 12.8607C36.8406 12.6442 36.3001 12.3295 35.8498 11.9355C35.3994 11.5415 35.0485 11.0761 34.8176 10.5669C34.5869 10.0577 34.4808 9.51496 34.506 8.97091C34.4775 8.42992 34.5805 7.88972 34.8086 7.38278C35.0368 6.87585 35.3853 6.41264 35.8335 6.021C36.2817 5.62937 36.8202 5.3174 37.4166 5.10385C38.0128 4.8903 38.6548 4.77958 39.3037 4.77834C39.9558 4.7823 40.6004 4.89555 41.1989 5.11135C41.7976 5.32715 42.3382 5.64111 42.7886 6.0346C43.239 6.42808 43.5901 6.89307 43.821 7.40196C44.0519 7.91084 44.158 8.45325 44.1328 8.99699V9.00351ZM29.2861 3.85897H30.6692V14.0568H29.3018L29.2861 3.85897ZM5.95343 14.1285L0.686768 3.83289H2.24957L3.03098 5.35864L6.63325 12.6418L6.97708 13.3395L6.84424 12.218L10.9388 3.83289H12.4235L7.18024 14.1285H5.95343ZM56.8384 3.83289H58.1904V14.0568H57.0886L48.4462 4.8631L49.2277 6.35626V14.0568H47.8289V3.83289H49.1261L57.409 12.6288L56.8384 11.3769V3.83289Z" fill="white"/>
<path d="M95.582 15.1391H96.8947V16.2215H95.5975L95.582 15.1391ZM98.1761 15.1391H99.4733V16.2215H98.1761V15.1391ZM71.4599 2.75055H70.1629V1.68122H71.4599V2.75055ZM103.185 10.3207C103.703 10.6229 104.283 10.8439 104.896 10.9727C105.568 11.1133 106.259 11.1834 106.951 11.1813H107.295L107.733 10.4184V11.4878C107.76 11.7154 107.722 11.9453 107.62 12.1576C107.518 12.37 107.355 12.5585 107.147 12.7071C106.661 12.9723 106.085 13.1003 105.506 13.0722C105.146 13.0747 104.787 13.044 104.435 12.9809C104.058 12.898 103.689 12.7889 103.333 12.655L102.935 13.6981C103.366 13.8341 103.807 13.9474 104.255 14.0372C104.634 14.1152 105.022 14.1546 105.412 14.1546C105.909 14.1925 106.409 14.1455 106.884 14.0166C107.358 13.8877 107.796 13.6795 108.17 13.4048C108.765 12.8519 109.074 12.1254 109.03 11.3834V3.84597H106.951C106.208 3.8396 105.469 3.93656 104.763 4.13286C104.145 4.30097 103.57 4.56414 103.068 4.90878C102.599 5.23202 102.222 5.6386 101.965 6.09885C101.708 6.5591 101.578 7.06139 101.583 7.56908C101.567 8.13759 101.714 8.70107 102.013 9.2122C102.292 9.65794 102.694 10.0422 103.185 10.3337V10.3207ZM103.185 6.49974C103.374 6.17987 103.64 5.89582 103.966 5.66514C104.306 5.43531 104.689 5.25457 105.099 5.13048C105.506 5.00882 105.934 4.94491 106.365 4.94138H108.459L107.725 5.24783V10.112H106.412C105.946 10.1138 105.482 10.0567 105.037 9.94247C104.63 9.83293 104.25 9.66525 103.912 9.44693C103.582 9.23484 103.315 8.96277 103.13 8.65145C102.937 8.31367 102.841 7.94317 102.849 7.56908C102.844 7.19718 102.949 6.82996 103.154 6.49974H103.185ZM74.0229 2.7636H72.7258V1.68122H74.0229V2.7636ZM112.312 14.1677C111.955 14.1673 111.6 14.1256 111.257 14.0438L111.601 13.0071C111.716 13.0358 111.833 13.0576 111.952 13.0722H112.265C112.473 13.0796 112.681 13.0507 112.874 12.9874C113.031 12.9282 113.16 12.8274 113.242 12.7005C113.346 12.541 113.412 12.3661 113.437 12.1854C113.481 11.9285 113.502 11.6692 113.5 11.4096V3.84597H114.789V11.4226C114.793 11.8052 114.754 12.1873 114.672 12.5637C114.606 12.8732 114.465 13.1683 114.257 13.4308C114.063 13.6707 113.793 13.8603 113.476 13.9785C113.107 14.1124 112.706 14.1769 112.304 14.1677H112.312ZM109.022 2.7636H106.178V1.87682C106.158 1.69058 106.183 1.50291 106.252 1.32486C106.32 1.14682 106.43 0.981995 106.576 0.840099C106.731 0.725416 106.912 0.637538 107.107 0.581572C107.303 0.525606 107.511 0.502665 107.717 0.514082H108.616V1.30304H107.725C107.655 1.29564 107.583 1.29989 107.515 1.31556C107.446 1.33122 107.382 1.35799 107.326 1.39432C107.249 1.48775 107.213 1.60072 107.225 1.71382V1.95507H109.007L109.022 2.7636ZM70.5222 14.0176H73.2103V13.2092C73.2103 13.2483 73.2651 13.2874 73.2963 13.32C73.4914 13.5591 73.7618 13.7487 74.0777 13.8677C74.4487 14.0047 74.8522 14.0693 75.2576 14.0568H99.4811V3.84597H98.184V12.9745H75.2888C75.0809 12.9818 74.8732 12.9529 74.6794 12.8897C74.5216 12.8288 74.3905 12.7286 74.3043 12.6028C74.2029 12.4427 74.1391 12.2678 74.1167 12.0877C74.0723 11.8307 74.0515 11.5713 74.0542 11.3117V3.84597H70.5536C69.754 3.83973 68.9611 3.96741 68.2217 4.22146C67.4823 4.4755 66.8116 4.85073 66.249 5.32495C65.6866 5.79916 65.2438 6.36272 64.947 6.98227C64.6503 7.6018 64.5054 8.26474 64.5211 8.93182C64.5021 9.59621 64.6439 10.257 64.9379 10.8746C65.232 11.4922 65.6724 12.0539 66.2326 12.5263C66.7928 12.9986 67.4615 13.3718 68.1985 13.6236C68.9356 13.8754 69.726 14.0006 70.5222 13.9916V14.0176ZM65.9041 8.87966C65.8768 8.35891 65.9758 7.83891 66.1955 7.35093C66.4151 6.86295 66.7507 6.41704 67.1821 6.04003C67.6133 5.66303 68.1316 5.36269 68.7057 5.15709C69.2797 4.95147 69.8975 4.84483 70.5222 4.84357H73.5542L72.7727 5.17611V11.2857C72.7709 11.6685 72.8127 12.0505 72.8977 12.4267C72.9417 12.6128 73.0098 12.7942 73.1009 12.9679H70.5692C69.938 12.9683 69.3133 12.8624 68.7325 12.6564C68.1516 12.4505 67.6266 12.1489 67.1888 11.7695C66.751 11.3902 66.4095 10.9411 66.1847 10.449C65.9599 9.95688 65.8566 9.43198 65.8807 8.90575L65.9041 8.87966Z" fill="white"/>
<path d="M5.49173 65.2535H4.5306L2.6865 63.2191L1.77225 64.0016V65.2535H0.97522V60.924H1.77225V63.2517L4.4134 60.924H5.36671L3.22566 62.7757L5.49173 65.2535Z" fill="white"/>
<path d="M7.35197 60.924H6.55493V65.2535H7.35197V60.924Z" fill="white"/>
<path d="M13.4477 60.924V65.2535H12.7678L9.72036 61.9737V65.2535H8.93896V60.924H9.70474L12.6662 64.1125V60.924H13.4477Z" fill="white"/>
<path d="M19.5972 62.8876V64.6676C18.9943 65.0924 18.2296 65.3236 17.4406 65.3197C17.0839 65.3344 16.7274 65.287 16.3939 65.1805C16.0604 65.0739 15.7571 64.9105 15.5035 64.7007C15.2498 64.4909 15.0514 64.2393 14.9208 63.9619C14.7901 63.6845 14.7302 63.3876 14.7447 63.0898C14.7405 62.7948 14.8069 62.5021 14.94 62.2288C15.0732 61.9555 15.2703 61.7071 15.52 61.4983C15.7696 61.2894 16.0666 61.1242 16.3938 61.0123C16.7209 60.9004 17.0714 60.8441 17.425 60.8468C18.1372 60.8157 18.8365 61.0141 19.3784 61.401L18.8784 61.8966C18.4687 61.5964 17.9386 61.4359 17.3936 61.4466C16.9003 61.4736 16.4393 61.6606 16.1091 61.9677C15.779 62.2748 15.6062 62.6776 15.6277 63.0898C15.6091 63.3037 15.6444 63.5186 15.7311 63.7206C15.8179 63.9224 15.9544 64.107 16.1318 64.2624C16.3091 64.4177 16.5233 64.5405 16.7609 64.6226C16.9984 64.7047 17.2539 64.7445 17.5109 64.7395C17.99 64.7446 18.4584 64.6211 18.8471 64.3873V63.4679H17.4718V62.9072L19.5972 62.8876Z" fill="white"/>
<path d="M22.9488 60.9244H21.0343V65.2539H22.9488C23.3064 65.277 23.6658 65.2382 24.0046 65.14C24.3435 65.0417 24.6543 64.886 24.9175 64.6828C25.1808 64.4795 25.3908 64.233 25.5345 63.9587C25.6781 63.6845 25.7523 63.3884 25.7523 63.0891C25.7523 62.7898 25.6781 62.4937 25.5345 62.2195C25.3908 61.9453 25.1808 61.6987 24.9175 61.4955C24.6543 61.2922 24.3435 61.1365 24.0046 61.0382C23.6658 60.9399 23.3064 60.9011 22.9488 60.9244ZM22.9488 64.6605H21.8313V61.5177H22.9488C23.4482 61.5177 23.9271 61.6833 24.2804 61.978C24.6336 62.2727 24.8319 62.6723 24.8319 63.0891C24.8319 63.5058 24.6336 63.9056 24.2804 64.2002C23.9271 64.4949 23.4482 64.6605 22.9488 64.6605Z" fill="white"/>
<path d="M29.4583 60.8456C29.101 60.8366 28.7452 60.8884 28.4125 60.9977C28.0799 61.107 27.7773 61.2714 27.523 61.4811C27.2688 61.6908 27.0681 61.9415 26.9333 62.2177C26.7986 62.494 26.7325 62.7903 26.739 63.0886C26.7359 63.5378 26.8928 63.9778 27.1897 64.3527C27.4866 64.7276 27.9102 65.0204 28.4068 65.1942C28.9034 65.3679 29.4507 65.4147 29.9791 65.3287C30.5077 65.2426 30.9937 65.0275 31.3755 64.7107C31.7574 64.3939 32.018 63.9896 32.1241 63.549C32.2304 63.1085 32.1774 62.6517 31.972 62.2363C31.7667 61.8209 31.4182 61.4658 30.9706 61.2158C30.5232 60.966 29.9968 60.8325 29.4583 60.8325V60.8456ZM31.3336 63.0886C31.3442 63.2995 31.3035 63.5099 31.214 63.7074C31.1244 63.9049 30.988 64.0852 30.8128 64.2374C30.6376 64.3897 30.4273 64.511 30.1945 64.5936C29.9617 64.6763 29.7113 64.7188 29.4583 64.7186C29.2046 64.7161 28.9539 64.6714 28.7212 64.5871C28.4885 64.5027 28.2782 64.3804 28.1028 64.2274C27.9274 64.0744 27.7904 63.8937 27.6998 63.6959C27.6091 63.498 27.5668 63.2872 27.5752 63.0755C27.5624 62.8641 27.6013 62.6527 27.6894 62.4541C27.7774 62.2556 27.9128 62.074 28.0875 61.9204C28.262 61.7667 28.4722 61.6443 28.7051 61.5604C28.938 61.4766 29.189 61.433 29.4427 61.4324C29.6968 61.4349 29.9478 61.4795 30.1809 61.5638C30.4141 61.6481 30.6249 61.7703 30.8009 61.9232C30.9769 62.0762 31.1146 62.2568 31.206 62.4547C31.2976 62.6525 31.341 62.8635 31.3336 63.0755V63.0886Z" fill="white"/>
<path d="M38.5769 60.924V65.2535H37.7799V61.9281L36.0139 64.132L34.2558 61.9412V65.2535H33.4744V60.924H34.3651L36.0296 63.0757L37.6862 60.924H38.5769Z" fill="white"/>
<path d="M45.2344 60.8456C44.8767 60.8367 44.5206 60.8884 44.1875 60.9976C43.8544 61.1067 43.5513 61.2712 43.2964 61.4808C43.0416 61.6904 42.8402 61.9409 42.7046 62.2172C42.569 62.4936 42.5019 62.79 42.5073 63.0886C42.5042 63.5376 42.6608 63.9773 42.9574 64.3521C43.254 64.7267 43.6772 65.0196 44.1733 65.1936C44.6694 65.3675 45.2163 65.4146 45.7446 65.3291C46.2729 65.2436 46.7589 65.0292 47.141 64.7129C47.5233 64.3968 47.7844 63.9932 47.8914 63.5531C47.9986 63.113 47.9467 62.6563 47.7425 62.2408C47.5385 61.8253 47.1911 61.4697 46.7447 61.219C46.2982 60.9683 45.7725 60.8339 45.2344 60.8325V60.8456ZM47.1019 63.0886C47.1125 63.2989 47.072 63.5089 46.9829 63.706C46.8939 63.9029 46.7582 64.0829 46.5838 64.2352C46.4095 64.3874 46.2 64.5086 45.9682 64.5917C45.7363 64.6748 45.4867 64.718 45.2344 64.7186C44.9807 64.7161 44.7301 64.6714 44.4973 64.5871C44.2645 64.5027 44.0543 64.3804 43.8789 64.2274C43.7035 64.0744 43.5665 63.8937 43.4758 63.6959C43.3853 63.498 43.3429 63.2872 43.3512 63.0755C43.3386 62.8641 43.3774 62.6527 43.4654 62.4541C43.5535 62.2556 43.689 62.074 43.8635 61.9204C44.0381 61.7667 44.2483 61.6443 44.4812 61.5604C44.7141 61.4766 44.965 61.433 45.2188 61.4324C45.4725 61.4349 45.7232 61.4797 45.9559 61.5639C46.1886 61.6483 46.3989 61.7705 46.5743 61.9237C46.7497 62.0767 46.8867 62.2574 46.9773 62.4551C47.068 62.653 47.1103 62.8638 47.1019 63.0755V63.0886Z" fill="white"/>
<path d="M50.0483 61.5174V62.8474H52.7363V63.4409H50.0483V65.2535H49.2512V60.924H53.0801V61.5174H50.0483Z" fill="white"/>
<path d="M60.6746 64.0477C60.6746 64.8171 59.9558 65.3517 58.8384 65.3517C58.0611 65.3559 57.3085 65.1242 56.7207 64.6996L57.1896 64.2302C57.6465 64.5801 58.2418 64.7774 58.8618 64.7844C59.4791 64.7844 59.8777 64.5432 59.8777 64.1325C59.8777 63.7216 59.5885 63.5782 58.6196 63.3956C57.51 63.1674 56.9005 62.9 56.9005 62.0916C56.9108 61.9124 56.9652 61.737 57.0603 61.5761C57.1555 61.4153 57.2895 61.2727 57.4537 61.157C57.6179 61.0414 57.8091 60.9552 58.015 60.9039C58.221 60.8528 58.4375 60.8374 58.6509 60.8593C59.315 60.8467 59.9638 61.0264 60.4871 61.3678L60.0652 61.8698C59.6574 61.5993 59.1559 61.4461 58.6352 61.433C58.0804 61.433 57.6975 61.6742 57.6975 62.0329C57.6975 62.3915 57.9789 62.5805 59.018 62.7892C60.2137 63.0305 60.6746 63.3825 60.6746 64.0477Z" fill="white"/>
<path d="M64.4413 60.8918H63.6598L61.3704 65.2539H62.1518L62.6988 64.1781H65.3165L65.8556 65.2539H66.6917L64.4413 60.8918ZM63.0191 63.6043L64.0427 61.6481L65.0664 63.6043H63.0191Z" fill="white"/>
<path d="M71.8887 60.924V63.3887C71.9306 63.6447 71.9032 63.9055 71.8084 64.1515C71.7136 64.3975 71.5537 64.6227 71.3409 64.8104C71.1279 64.9981 70.8672 65.1435 70.5779 65.236C70.2887 65.3285 69.9783 65.3657 69.6696 65.3447C69.3673 65.3669 69.063 65.3326 68.7788 65.2442C68.4946 65.1558 68.2375 65.0155 68.0264 64.8338C67.8153 64.652 67.6554 64.4332 67.5585 64.1934C67.4616 63.9535 67.4299 63.6986 67.466 63.4473V60.9435H68.2474V63.4147C68.2474 64.2558 68.7631 64.7188 69.6696 64.7188C70.576 64.7188 71.076 64.2429 71.076 63.4147V60.9109L71.8887 60.924Z" fill="white"/>
<path d="M75.3108 60.9244H73.3964V65.2539H75.3108C75.6684 65.277 76.0279 65.2382 76.3667 65.14C76.7055 65.0417 77.0163 64.886 77.2796 64.6828C77.5428 64.4795 77.7529 64.233 77.8965 63.9587C78.0402 63.6845 78.1143 63.3884 78.1143 63.0891C78.1143 62.7898 78.0402 62.4937 77.8965 62.2195C77.7529 61.9453 77.5428 61.6987 77.2796 61.4955C77.0163 61.2922 76.7055 61.1365 76.3667 61.0382C76.0279 60.9399 75.6684 60.9011 75.3108 60.9244ZM75.3108 64.6605H74.1856V61.5177H75.3108C75.8102 61.5177 76.2892 61.6833 76.6424 61.978C76.9956 62.2727 77.194 62.6723 77.194 63.0891C77.194 63.5058 76.9956 63.9056 76.6424 64.2002C76.2892 64.4949 75.8102 64.6605 75.3108 64.6605Z" fill="white"/>
<path d="M80.2029 60.924H79.4058V65.2535H80.2029V60.924Z" fill="white"/>
<path d="M87.2042 60.8918H86.4229L84.1333 65.2539H84.9147L85.4617 64.1781H88.0794L88.6186 65.2539H89.4547L87.2042 60.8918ZM85.7821 63.6043L86.8058 61.6481L87.8294 63.6043H85.7821Z" fill="white"/>
<path d="M93.4554 63.5984H93.5492C93.9032 63.5335 94.2192 63.3679 94.443 63.13C94.6668 62.8921 94.7844 62.5967 94.7759 62.2944C94.7888 61.9493 94.6371 61.6139 94.3541 61.362C93.9426 61.0627 93.4065 60.9104 92.8616 60.9382H90.5173V65.2676H91.2988V63.7028H92.5647L93.854 65.2285H94.7916L93.4554 63.5984ZM91.3534 63.129V61.5184H92.7834C93.5648 61.5184 93.9634 61.8054 93.9634 62.3139C93.9634 62.8226 93.5023 63.129 92.7913 63.129H91.3534Z" fill="white"/>
<path d="M98.871 60.8918H98.0895L95.8 65.2539H96.5815L97.1284 64.1781H99.7461L100.285 65.2539H101.121L98.871 60.8918ZM97.441 63.6043L98.4646 61.6481L99.496 63.6043H97.441Z" fill="white"/>
<path d="M105.489 63.0573L105.325 63.0117L105.473 62.9464C105.694 62.8699 105.882 62.7391 106.012 62.5714C106.142 62.4037 106.207 62.207 106.2 62.0075C106.205 61.8762 106.178 61.7453 106.121 61.6231C106.063 61.5007 105.975 61.3897 105.864 61.2968C105.491 61.0323 105.009 60.8992 104.52 60.9252H102.176V65.2547H104.575C105.77 65.2547 106.481 64.8178 106.481 64.0941C106.488 63.8495 106.391 63.611 106.206 63.421C106.021 63.2311 105.762 63.1021 105.473 63.0573H105.489ZM102.957 61.499H104.379C105.012 61.499 105.387 61.7337 105.387 62.1509C105.387 62.5683 104.997 62.803 104.309 62.803H102.957V61.499ZM104.583 64.6808H102.957V63.3768H104.52C105.536 63.3768 105.684 63.7875 105.684 64.0288C105.684 64.4722 105.286 64.6808 104.583 64.6808Z" fill="white"/>
<path d="M108.622 60.924H107.825V65.2535H108.622V60.924Z" fill="white"/>
<path d="M112.749 60.8918H111.968L109.686 65.2539H110.467L111.014 64.1781H113.632L114.171 65.2539H115.007L112.749 60.8918ZM111.327 63.6043L112.351 61.6481L113.382 63.6043H111.327Z" fill="white"/>
<path d="M83.172 51.1777H82.3907V51.8297H83.172V51.1777ZM73.7951 56.7721H74.5766V51.1777H73.7951V56.7721ZM8.5948 52.5404H7.81339V56.1462H4.84406V52.5404H3.6954C3.26613 52.5359 2.83877 52.5888 2.42952 52.6969C2.07606 52.7927 1.74736 52.9431 1.46058 53.1403C1.19992 53.3189 0.986975 53.541 0.835454 53.7924C0.688588 54.0557 0.613847 54.343 0.616661 54.6335C0.608188 54.9629 0.693905 55.2892 0.866711 55.5854C1.02997 55.8417 1.25953 56.0644 1.53872 56.2375C1.83492 56.4149 2.16914 56.5433 2.52329 56.6156C2.90532 56.7023 3.29949 56.7462 3.6954 56.7461H8.5948V52.5404ZM4.13297 56.1462H3.39847C3.13351 56.1473 2.86993 56.1144 2.61705 56.0483C2.38227 55.9824 2.16288 55.8831 1.96849 55.755C1.78707 55.6256 1.64059 55.4656 1.53872 55.2855C1.42381 55.082 1.37017 54.8582 1.38244 54.6335C1.3789 54.4205 1.43792 54.2101 1.55435 54.0205C1.6647 53.8377 1.81897 53.6756 2.00757 53.5446C2.19882 53.4109 2.41898 53.3092 2.65613 53.2447C2.90656 53.169 3.17121 53.1315 3.43752 53.1338H4.17205L4.13297 56.1462ZM6.52408 58.1479H7.30549V57.4959H6.52408V58.1479ZM4.8675 51.1777H4.0861V51.8297H4.8675V51.1777ZM50.478 51.1777H49.6966V51.8297H50.478V51.1777ZM7.81339 58.1479H8.5948V57.4959H7.81339V58.1479ZM51.783 51.1777H51.0016V51.8297H51.783V51.1777ZM81.8671 51.1777H81.0857V51.8297H81.8671V51.1777ZM3.56256 51.1777H2.78115V51.8297H3.56256V51.1777ZM54.2757 58.1479H55.0571V57.4959H54.2757V58.1479ZM59.0657 52.5404H58.2843V56.1462H55.4791V52.5404H54.6977V56.1462H51.7284V52.5404H50.5562C50.1243 52.536 49.6945 52.5889 49.2825 52.6969C48.9298 52.7941 48.6013 52.9444 48.3136 53.1403C48.0552 53.3191 47.8449 53.5412 47.6962 53.7924C47.5494 54.0557 47.4747 54.343 47.4775 54.6335C47.465 54.9632 47.5509 55.2903 47.7275 55.5854C47.8878 55.8434 48.118 56.0666 48.3996 56.2375C48.6929 56.4149 49.0245 56.5433 49.3763 56.6156C49.7608 56.7028 50.1577 56.7466 50.5562 56.7461H59.0657V52.5404ZM51.0407 56.1462H50.2984C50.0335 56.1465 49.77 56.1135 49.5169 56.0483C49.2853 55.9809 49.0688 55.8818 48.8762 55.755C48.6925 55.6258 48.5433 55.4658 48.4386 55.2855C48.3276 55.0809 48.2742 54.8579 48.2823 54.6335C48.2788 54.4205 48.3378 54.2101 48.4543 54.0205C48.5698 53.8387 48.7264 53.677 48.9153 53.5446C49.1065 53.4109 49.3266 53.3092 49.5639 53.2447C49.8143 53.1688 50.0789 53.1313 50.3452 53.1338H51.0875L51.0407 56.1462ZM55.5806 58.1479H56.362V57.4959H55.5806V58.1479ZM13.3848 53.0882C13.1975 52.9136 12.9686 52.7738 12.7128 52.6774C12.4281 52.5796 12.1219 52.533 11.8142 52.5404H11.2672V53.1925H11.9158C12.0943 53.1923 12.2706 53.2257 12.4315 53.2902C12.5856 53.3489 12.7218 53.4358 12.83 53.5446C12.9346 53.6486 13.0095 53.7713 13.0489 53.9032C13.0922 54.057 13.1133 54.2146 13.1114 54.3726V56.1788H9.63406V56.8308H13.8849V54.314C13.8827 54.0931 13.8434 53.8736 13.7677 53.6619C13.694 53.4627 13.5717 53.2784 13.4082 53.1208L13.3848 53.0882ZM70.904 56.1788H67.7315L69.0364 53.5706C68.8353 53.4235 68.624 53.2863 68.4035 53.1599C68.1824 53.0341 67.9499 52.9229 67.7081 52.8273C67.4787 52.7305 67.2377 52.6539 66.9892 52.5992C66.7548 52.5455 66.5133 52.517 66.2703 52.5144C66.0247 52.5169 65.7805 52.5454 65.5435 52.5992C65.3072 52.654 65.0772 52.726 64.8559 52.8143C64.6114 52.9082 64.3785 53.0218 64.1604 53.1534C63.9446 53.2794 63.7385 53.4166 63.5431 53.5642L64.8559 56.1722H62.0429V52.5404H61.2615V56.9025C61.2712 57.0524 61.2712 57.2026 61.2615 57.3525C61.2439 57.4554 61.2042 57.5548 61.1442 57.6459C61.0942 57.716 61.0209 57.7726 60.9333 57.8088C60.8212 57.8454 60.7017 57.8631 60.5816 57.861H60.4019L60.1988 57.8219L60.0034 58.4218C60.2022 58.4658 60.4071 58.4877 60.6129 58.4869C60.8433 58.494 61.0729 58.4583 61.2849 58.3826C61.4682 58.3004 61.6219 58.1789 61.7303 58.0306C61.8468 57.8798 61.9265 57.7115 61.9647 57.535C62.0134 57.3201 62.0369 57.1017 62.035 56.883V56.7526H71.6463V51.1777H70.8649L70.904 56.1788ZM65.6138 56.1788L64.4417 53.7858C64.7035 53.5969 65.0022 53.4469 65.3247 53.3424C65.6279 53.2511 65.9479 53.2048 66.2703 53.2056C66.6132 53.2054 66.9528 53.2607 67.2704 53.3686C67.5768 53.4688 67.8618 53.6097 68.1144 53.7858L66.9422 56.1788H65.6138ZM58.3077 58.1805H59.0891V57.5284H58.3077V58.1805ZM113.991 56.8048H114.772V51.1777H113.991V56.8048ZM111.068 56.1527H108.505C108.662 55.864 108.742 55.5503 108.74 55.2334C108.742 54.9247 108.67 54.6187 108.529 54.3335C108.393 54.0658 108.196 53.8223 107.95 53.6163C107.705 53.409 107.413 53.245 107.091 53.1338C106.749 53.0155 106.382 52.9557 106.012 52.9578C105.652 52.9541 105.294 53.0163 104.965 53.1403C104.648 53.2525 104.361 53.4166 104.122 53.6228C103.807 53.8951 103.577 54.2279 103.453 54.5918C103.329 54.9558 103.314 55.3396 103.41 55.7093C103.447 55.8613 103.502 56.0099 103.575 56.1527H101.23C101.383 55.8629 101.463 55.55 101.465 55.2334C101.463 54.925 101.392 54.6196 101.254 54.3335C101.118 54.0658 100.921 53.8223 100.675 53.6163C100.431 53.409 100.138 53.245 99.816 53.1338C99.4742 53.0155 99.1076 52.9557 98.7376 52.9578C98.3768 52.9541 98.0194 53.0163 97.6905 53.1403C97.3734 53.2525 97.0865 53.4166 96.8467 53.6228C96.5317 53.8951 96.302 54.2279 96.178 54.5918C96.054 54.9558 96.0394 55.3396 96.1356 55.7093C96.1725 55.8613 96.2275 56.0099 96.2996 56.1527H93.9554V51.1777H93.174V56.1462H90.8298V55.1942C90.8298 54.963 90.7931 54.7328 90.7204 54.5096C90.6512 54.3082 90.5313 54.1216 90.3688 53.9619C90.1891 53.7878 89.9647 53.6496 89.7124 53.5576C89.4198 53.4589 89.1057 53.4123 88.7904 53.4207H85.485L86.8915 51.1777H86.1102L84.6723 53.4141C84.6906 53.5357 84.73 53.6543 84.7895 53.7663C84.8448 53.8685 84.9185 53.9631 85.0084 54.0467H88.8216C89.03 54.0437 89.237 54.0747 89.4311 54.1379C89.5902 54.1896 89.7322 54.2723 89.8452 54.3792C89.9513 54.4824 90.0264 54.6054 90.064 54.7378C90.0996 54.8882 90.118 55.041 90.1188 55.1942V56.1462H83.2111V52.5404H82.0312C81.6019 52.5355 81.1744 52.5884 80.7653 52.6969C80.4102 52.7941 80.0791 52.9443 79.7885 53.1403C79.5323 53.3208 79.3223 53.5426 79.1712 53.7924C79.0244 54.0557 78.9496 54.343 78.9525 54.6335C78.944 54.9629 79.0297 55.2892 79.2025 55.5854C79.3657 55.8417 79.5953 56.0644 79.8745 56.2375C80.1686 56.4137 80.5 56.5421 80.8512 56.6156C81.2358 56.7028 81.6327 56.7466 82.0312 56.7461H96.8779C97.1224 56.9649 97.4174 57.14 97.7452 57.2611C98.0869 57.388 98.4573 57.4525 98.8313 57.4502C99.2124 57.4539 99.5902 57.3918 99.941 57.2677C100.281 57.1486 100.587 56.9708 100.84 56.7461H104.122C104.366 56.9649 104.661 57.14 104.989 57.2611C105.33 57.3888 105.701 57.4533 106.075 57.4502C106.458 57.4534 106.839 57.3913 107.192 57.2677C107.529 57.1468 107.832 56.9692 108.083 56.7461H111.881V51.1777H111.099L111.068 56.1527ZM82.4297 56.1527H81.6952C81.4302 56.1539 81.1667 56.1209 80.9137 56.0549C80.679 55.9889 80.4595 55.8897 80.2652 55.7615C80.0838 55.6321 79.9373 55.4721 79.8355 55.292C79.7251 55.0985 79.6677 54.8869 79.6677 54.6726C79.6677 54.4583 79.7251 54.2467 79.8355 54.0531C79.9511 53.8713 80.1076 53.7097 80.2964 53.5771C80.4877 53.4436 80.7078 53.3418 80.945 53.2773C81.1955 53.2017 81.4601 53.1641 81.7264 53.1664H82.4609L82.4297 56.1527ZM100.59 55.8789C100.491 56.0723 100.348 56.2476 100.168 56.394C99.9898 56.5421 99.7769 56.6575 99.5424 56.733C99.2935 56.814 99.0282 56.8538 98.761 56.8503C98.4931 56.8552 98.2269 56.813 97.9797 56.7265C97.7514 56.6462 97.5462 56.5261 97.3779 56.3744C97.1997 56.2232 97.0595 56.0438 96.9655 55.8467C96.8717 55.6496 96.8258 55.4389 96.831 55.2268C96.828 55.004 96.8757 54.7828 96.9717 54.5748C97.0659 54.3824 97.201 54.2057 97.3701 54.0531C97.5427 53.9056 97.7467 53.7861 97.9719 53.701C98.2186 53.6127 98.4848 53.5683 98.7533 53.5706C99.0209 53.5684 99.2865 53.6106 99.5346 53.6945C99.7656 53.7756 99.9772 53.8904 100.16 54.0336C100.335 54.1845 100.476 54.3614 100.574 54.5552C100.672 54.7629 100.722 54.9841 100.722 55.2073C100.723 55.4312 100.67 55.6529 100.566 55.8593L100.59 55.8789ZM107.81 55.8593C107.712 56.0528 107.568 56.2279 107.388 56.3744C107.21 56.5225 106.997 56.638 106.763 56.7135C106.514 56.7945 106.248 56.8343 105.981 56.8308C105.713 56.8356 105.447 56.7934 105.2 56.7069C104.973 56.6249 104.768 56.5051 104.598 56.3549C104.42 56.2036 104.28 56.0243 104.186 55.8271C104.092 55.6301 104.046 55.4193 104.051 55.2073C104.048 54.9845 104.096 54.7631 104.192 54.5552C104.289 54.3641 104.424 54.1878 104.59 54.0336C104.763 53.886 104.967 53.7666 105.192 53.6815C105.439 53.5932 105.705 53.5487 105.973 53.5511C106.241 53.5488 106.507 53.5909 106.755 53.675C106.986 53.756 107.197 53.8708 107.38 54.014C107.556 54.165 107.696 54.3419 107.794 54.5356C107.995 54.9542 107.995 55.4212 107.794 55.8398L107.81 55.8593ZM39.3274 56.1136H38.1476C37.794 56.1271 37.4413 56.0736 37.116 55.9571C36.868 55.8541 36.6634 55.6903 36.5301 55.4877C36.5742 55.2965 36.5951 55.102 36.5926 54.9073V52.9316H35.8502V55.0378C35.8687 55.3515 35.743 55.6594 35.4985 55.8984C35.3641 56.0124 35.2014 56.1007 35.022 56.157C34.8424 56.2133 34.6505 56.2363 34.4593 56.2244C34.2542 56.2277 34.0501 56.1989 33.8576 56.1396C33.686 56.085 33.5273 56.0055 33.3888 55.9049C33.2635 55.8057 33.1604 55.6887 33.084 55.5594C33.007 55.427 32.9644 55.2826 32.959 55.1355V52.9316H32.1776V55.0898C32.1843 55.2549 32.1497 55.4192 32.076 55.5724C32.0137 55.694 31.9208 55.8029 31.8035 55.8918C31.6861 55.9807 31.5473 56.0475 31.3961 56.0876C31.2416 56.1266 31.0811 56.1463 30.9195 56.1462H29.5129V52.9316H28.7316V56.1462H24.8245L26.1373 53.538C25.9341 53.3946 25.7232 53.2577 25.4966 53.1273C25.2771 53.003 25.0473 52.8918 24.8089 52.7948C24.5795 52.6979 24.3386 52.6213 24.09 52.5666C23.6177 52.4537 23.1168 52.4537 22.6445 52.5666C22.3951 52.623 22.152 52.6972 21.9177 52.7882C21.6758 52.8821 21.4455 52.9958 21.2302 53.1273C21.0103 53.2517 20.8014 53.3889 20.605 53.538L21.9255 56.1462H19.3548V52.5404H18.1592C17.7293 52.5354 17.3013 52.5904 16.8933 52.7034C16.5401 52.8028 16.2118 52.9553 15.9244 53.1534C15.6581 53.3288 15.4419 53.5516 15.2914 53.8054C15.1408 54.0702 15.0633 54.3599 15.0648 54.653C15.0555 54.9825 15.1412 55.309 15.3148 55.605C15.4743 55.8634 15.7044 56.0869 15.9869 56.257C16.2835 56.4325 16.6177 56.5586 16.9714 56.6287C17.3598 56.7103 17.7587 56.752 18.1592 56.7526H18.6046V56.9286C18.6198 57.0598 18.5973 57.1922 18.5388 57.3147C18.4803 57.4372 18.3877 57.5462 18.2686 57.6328C17.9883 57.785 17.6569 57.8581 17.323 57.8415C17.1152 57.8435 16.9078 57.8239 16.7058 57.7828C16.4888 57.7374 16.277 57.6763 16.0728 57.6002L15.8462 58.2001C16.1275 58.2849 16.3854 58.3501 16.6276 58.3957C16.8451 58.4398 17.0681 58.4617 17.2918 58.4609C17.5735 58.4798 17.857 58.4516 18.1254 58.3776C18.3938 58.3037 18.6417 58.1857 18.8546 58.0306C19.0269 57.8737 19.16 57.6896 19.2458 57.4891C19.3317 57.2887 19.3688 57.076 19.3548 56.8634V56.7526H30.9586C31.2938 56.7575 31.6248 56.6901 31.9197 56.557C32.1972 56.4333 32.4335 56.254 32.6074 56.0354C32.7851 56.2804 33.0389 56.4809 33.3419 56.6156C33.6871 56.7631 34.0717 56.8348 34.4593 56.8243C34.852 56.8357 35.2425 56.771 35.6001 56.6352C35.9121 56.5042 36.1664 56.2942 36.3269 56.0354C36.3919 56.1283 36.4678 56.2157 36.5535 56.2961C36.6521 56.3903 36.7715 56.4678 36.9051 56.5244C37.067 56.5985 37.2406 56.6534 37.4208 56.6873C37.5979 56.7199 37.7785 56.7374 37.9599 56.7395H40.1167V51.1777H39.3353L39.3274 56.1136ZM18.5655 56.1136H17.7841C17.5192 56.1144 17.2558 56.0814 17.0027 56.0158C16.7664 55.9559 16.5461 55.8585 16.3541 55.7288C16.1712 55.6042 16.0222 55.4487 15.9166 55.2725C15.8057 55.0679 15.7521 54.8448 15.7603 54.6204C15.7568 54.4075 15.8157 54.1971 15.9321 54.0076C16.0453 53.8223 16.2021 53.6582 16.3932 53.5251C16.5879 53.394 16.8069 53.2905 17.0418 53.2185C17.2926 53.1452 17.5574 53.1098 17.8232 53.1142H18.6046L18.5655 56.1136ZM22.6836 56.1136L21.5193 53.7207C21.7786 53.529 22.0779 53.3786 22.4022 53.2773C22.7053 53.1855 23.0254 53.1391 23.3477 53.1403C23.6905 53.1407 24.0301 53.1961 24.3479 53.3033C24.6519 53.4036 24.9343 53.5445 25.184 53.7207L24.0197 56.1136H22.6836ZM42.2187 56.7657H43V51.1777H42.2187V56.7657Z" fill="white"/>
<path d="M100.316 19.5604C91.1574 19.5604 84.5076 25.3244 84.5076 32.3598V32.4315C84.5076 39.467 91.0792 45.1592 100.229 45.1592C109.38 45.1592 116.03 39.3952 116.03 32.3598V32.2881C116.03 25.2527 109.466 19.5604 100.316 19.5604ZM109.208 32.4315C109.208 36.6697 105.566 40.1386 100.316 40.1386C95.0644 40.1386 91.3294 36.6046 91.3294 32.3598V32.2881C91.3294 28.0434 94.9785 24.5811 100.229 24.5811C105.481 24.5811 109.208 28.1151 109.208 32.3598V32.4315ZM11.2588 40.0342H22.5658V44.7355H0.616089V40.4254L10.493 33.6704C14.1734 31.121 15.619 29.7582 15.619 27.7304C15.619 25.7026 13.9625 24.5093 11.6339 24.5093C9.3053 24.5093 7.77375 25.5722 5.57801 27.8347L0.998977 24.7767C3.92143 21.4513 6.75793 19.6517 12.0559 19.6517C18.1977 19.6517 22.2688 22.6576 22.2688 27.287V27.3587C22.2688 31.4926 19.7292 33.5465 14.4547 36.9371L7.99254 41.0775L6.73448 41.886L11.2588 40.0342ZM82.8276 36.9892V37.061C82.8276 41.7296 78.7565 45.1592 72.1459 45.1592C66.8089 45.1592 63.1207 43.3922 60.581 40.8819L65.0741 37.3087C67.1057 39.2193 69.2234 40.282 72.2318 40.282C74.6932 40.282 76.4279 39.1149 76.4279 37.2761V37.2044C76.4279 35.1896 74.2634 34.0551 70.6221 34.0551H67.9107L66.8948 30.5928L76.4123 22.6054L72.5991 24.6528H62.3158V19.9843H82.3588V24.0855L74.8573 30.0582C78.9206 30.645 82.8276 32.3924 82.8276 36.9892Z" fill="white"/>
<path d="M51.0319 33.5134C50.7089 33.3571 50.3654 33.2324 50.0083 33.1417C49.0948 32.8992 48.1259 32.8389 47.1795 32.9657C46.7611 33.0211 46.3502 33.1106 45.9527 33.2331H45.8277C45.609 33.3048 45.3979 33.383 45.1791 33.4743C44.9604 33.5656 44.8118 33.6373 44.6243 33.7351C44.2102 33.9437 43.7961 34.185 43.3897 34.4393C43.0731 32.6164 43.0311 30.7677 43.2647 28.9361C44.2415 29.4512 43.9679 30.8922 43.7648 31.303C44.1683 30.9128 44.4203 30.4296 44.4873 29.9173C44.5542 29.4049 44.4331 28.8877 44.1399 28.4341C44.3014 28.5468 44.4481 28.6735 44.5774 28.8122C44.9018 29.1645 45.0947 29.5885 45.1322 30.0316C45.1518 30.216 45.1518 30.4014 45.1322 30.5858C45.1361 30.627 45.1361 30.6684 45.1322 30.7097C45.3359 30.3776 45.4422 30.0101 45.4422 29.6371C45.4422 29.2641 45.3359 28.8965 45.1322 28.5645C44.9899 28.324 44.8026 28.1039 44.5774 27.9125L44.3586 27.7364L44.5697 27.7886C44.7681 27.8451 44.9552 27.9264 45.1245 28.0298C45.4777 28.2516 45.7485 28.5522 45.9058 28.897C46.0328 29.1581 46.0991 29.4368 46.1011 29.7186C46.208 29.4519 46.2459 29.1692 46.2123 28.8893C46.1786 28.6094 46.0742 28.3387 45.9058 28.095C45.7114 27.8288 45.4435 27.6052 45.1245 27.443C44.9516 27.3529 44.7649 27.2828 44.5697 27.2343C44.4825 27.2123 44.3938 27.1948 44.304 27.1822H44.5618C44.7479 27.1806 44.9335 27.1936 45.1166 27.2213C45.3955 27.2596 45.6616 27.3462 45.8981 27.4756C46.1101 27.5949 46.2866 27.7533 46.4138 27.9385C46.3775 27.6031 46.1871 27.2923 45.8824 27.0713C45.6555 26.9111 45.3885 26.7952 45.101 26.7322C44.9204 26.6888 44.734 26.6647 44.5461 26.6605C44.3109 26.6567 44.0771 26.6922 43.8586 26.7649C44.0298 26.5649 44.278 26.4199 44.5618 26.3541C44.741 26.3069 44.929 26.287 45.1166 26.2954C45.273 26.3026 45.4267 26.3335 45.5699 26.3867C45.4388 26.261 45.2829 26.1552 45.1088 26.0737C44.7948 25.9219 44.422 25.8785 44.0702 25.9528C43.7184 26.0271 43.4153 26.2132 43.2256 26.4715C43.1554 26.3705 43.0927 26.266 43.0381 26.1585C42.8971 25.8896 42.7974 25.607 42.7411 25.3174C42.6849 25.6099 42.5824 25.895 42.4364 26.165C42.3843 26.2702 42.3243 26.3726 42.2566 26.4715C42.1332 26.3091 41.9646 26.174 41.7652 26.0778C41.5657 25.9815 41.3413 25.9269 41.1111 25.9185C40.8808 25.9102 40.6516 25.9485 40.4429 26.03C40.2342 26.1115 40.0522 26.2338 39.9125 26.3867C40.2066 26.2842 40.5331 26.2657 40.8412 26.334C41.1493 26.4025 41.4217 26.5539 41.6159 26.7649C41.2368 26.6516 40.826 26.6345 40.4352 26.7157C40.0445 26.7969 39.6913 26.9728 39.4202 27.2213C39.2186 27.4252 39.0959 27.6752 39.0686 27.9385C39.1546 27.8073 39.2685 27.6902 39.4045 27.593C39.6484 27.4261 39.9319 27.3044 40.2363 27.2358C40.5407 27.1672 40.8593 27.1534 41.1705 27.1952C40.78 27.2522 40.413 27.391 40.1042 27.5985C39.7953 27.8061 39.5546 28.0756 39.4045 28.3819C39.2408 28.8059 39.2408 29.262 39.4045 29.686V29.6469C39.3962 29.2135 39.5604 28.7902 39.8716 28.4432C40.1827 28.0963 40.6231 27.8454 41.1236 27.7298C40.6045 28.0711 40.2429 28.5518 40.1005 29.0903C39.9581 29.6287 40.0435 30.1917 40.3422 30.6836C40.2764 30.2665 40.3402 29.8423 40.5277 29.4518C40.7152 29.0612 41.02 28.7175 41.4127 28.4536C41.1194 28.9072 40.9984 29.4245 41.0653 29.9368C41.1323 30.4492 41.3843 30.9325 41.7879 31.3226C41.5847 30.9118 41.3111 29.4708 42.2879 28.9557C42.5291 30.7907 42.4976 32.6434 42.1941 34.4719C41.4491 33.9711 40.6232 33.5606 39.7405 33.2526L39.4357 33.1678C38.697 32.9586 37.918 32.8657 37.1384 32.8939C36.3243 32.9266 35.5267 33.0974 34.7943 33.3961L34.5598 33.5003L34.7709 33.4483C35.5321 33.2674 36.3259 33.2011 37.115 33.2526C37.9114 33.3135 38.6889 33.4899 39.4123 33.7742C40.4206 34.1744 41.357 34.6901 42.1941 35.3065C41.3296 36.0055 40.4136 36.6588 39.4514 37.2626C39.4258 37.2815 39.3969 37.297 39.3655 37.3082C39.2935 37.2258 39.1947 37.1621 39.0808 37.1249C38.9668 37.0878 38.8426 37.0786 38.7226 37.0985C38.6026 37.1183 38.4921 37.1665 38.4038 37.2372C38.3155 37.3079 38.2533 37.3981 38.2246 37.4973C38.2007 37.5762 38.1996 37.6588 38.2215 37.7381C38.2431 37.8174 38.2871 37.8913 38.3496 37.9538C38.4889 38.0756 38.6728 38.1553 38.8724 38.1801C39.0719 38.205 39.2757 38.1735 39.4514 38.0906C40.2329 37.8103 41.2565 36.917 42.4833 35.9781L42.7959 35.7434L43.1084 35.9781C43.6632 36.402 44.179 36.8192 44.6713 37.1713C44.8665 37.3213 45.0463 37.4516 45.226 37.5755C45.4668 37.7461 45.7288 37.8948 46.0074 38.0189C46.1829 38.1326 46.3987 38.1944 46.6208 38.1944C46.843 38.1944 47.0588 38.1326 47.2342 38.0189L47.289 37.9733C47.3453 37.9081 47.3855 37.8341 47.407 37.7557C47.4284 37.6773 47.4309 37.5961 47.414 37.5169C47.3842 37.4158 47.3221 37.3234 47.2342 37.2495C47.1671 37.1982 47.0877 37.1591 47.0013 37.135C46.9149 37.1109 46.8234 37.1023 46.7327 37.1097C46.642 37.117 46.5542 37.1403 46.4751 37.1778C46.3959 37.2155 46.327 37.2665 46.2731 37.3278L45.9527 37.1648C45.6794 37.0046 45.4185 36.8304 45.1713 36.6432L44.6165 36.2324L43.3818 35.3C43.7726 35.0261 44.1633 34.7654 44.6165 34.5176L45.1713 34.2241C45.4213 34.1002 45.6792 33.9829 45.9527 33.8786C46.3481 33.7202 46.7584 33.5893 47.1795 33.4874C48.0985 33.2663 49.0648 33.2195 50.0083 33.3504C50.3501 33.3923 50.6872 33.4577 51.0162 33.546" fill="white"/>
<path d="M42.7789 45.9735L40.9224 47.5227L42.7789 49.0718L44.6355 47.5227L42.7789 45.9735Z" fill="white"/>
<path d="M27.8423 37.0955L27.1682 38.8255L29.2415 39.3879L29.9156 37.6579L27.8423 37.0955Z" fill="white"/>
<path d="M33.8621 21.9329L33.5797 23.4205L35.3625 23.6561L35.6449 22.1685L33.8621 21.9329Z" fill="white"/>
<path d="M56.6817 31.1135L55.4054 32.1785L56.6817 33.2436L57.9581 32.1785L56.6817 31.1135Z" fill="white"/>
<path d="M55.6153 27.5914L54.796 28.9336L56.4045 29.6172L57.2238 28.275L55.6153 27.5914Z" fill="white"/>
<path d="M35.3612 40.7111L33.5784 40.9467L33.8607 42.4343L35.6436 42.1987L35.3612 40.7111Z" fill="white"/>
<path d="M51.7079 21.9329L49.925 22.1685L50.2074 23.6561L51.9903 23.4205L51.7079 21.9329Z" fill="white"/>
<path d="M38.884 42.2023L37.2755 42.8858L38.0948 44.2279L39.7032 43.5444L38.884 42.2023Z" fill="white"/>
<path d="M42.7816 19.5142L41.5051 20.5792L42.7816 21.6442L44.0579 20.5792L42.7816 19.5142Z" fill="white"/>
<path d="M40.7297 21.3461L39.8523 22.3536L41.0596 23.0857L41.937 22.0783L40.7297 21.3461Z" fill="white"/>
<path d="M44.5154 41.2777L43.6379 42.2852L44.8452 43.0173L45.7228 42.0099L44.5154 41.2777Z" fill="white"/>
<path d="M32.4906 26.8197L31.071 27.2043L31.5321 28.3888L32.9516 28.0042L32.4906 26.8197Z" fill="white"/>
<path d="M54.0434 35.978L52.6239 36.3627L53.0848 37.5472L54.5043 37.1626L54.0434 35.978Z" fill="white"/>
<path d="M30.6787 32.887L29.8011 33.8943L31.0085 34.6266L31.886 33.6191L30.6787 32.887Z" fill="white"/>
<path d="M60.841 35.4475L58.5016 36.4421L59.6935 38.3941L62.0328 37.3995L60.841 35.4475Z" fill="white"/>
<path d="M33.0706 43.3358L30.4774 43.6785L30.8881 45.8423L33.4813 45.4997L33.0706 43.3358Z" fill="white"/>
<path d="M54.6797 18.5143L52.0865 18.8569L52.4972 21.0208L55.0904 20.6781L54.6797 18.5143Z" fill="white"/>
<path d="M26.758 33.0037L25.4769 34.4756L27.2409 35.5446L28.522 34.0728L26.758 33.0037Z" fill="white"/>
<path d="M38.0959 20.1382L37.2767 21.4803L38.8852 22.1639L39.7043 20.8217L38.0959 20.1382Z" fill="white"/>
<path d="M29.9579 27.5803L28.3495 28.264L29.1688 29.6061L30.7772 28.9225L29.9579 27.5803Z" fill="white"/>
<path d="M42.7863 42.7168L41.5099 43.7819L42.7863 44.8469L44.0626 43.7819L42.7863 42.7168Z" fill="white"/>
<path d="M53.0813 26.8136L52.6202 27.9981L54.0398 28.3827L54.5008 27.1982L53.0813 26.8136Z" fill="white"/>
<path d="M34.9836 38.6902H33.4911V39.9356H34.9836V38.6902Z" fill="white"/>
<path d="M25.8678 25.9655L23.5284 26.9601L24.7204 28.9122L27.0598 27.9175L25.8678 25.9655Z" fill="white"/>
<path d="M24.7192 35.4525L23.5273 37.4046L25.8667 38.3992L27.0586 36.4471L24.7192 35.4525Z" fill="white"/>
<path d="M34.8243 19.1484L34.1506 20.8786L36.2241 21.4407L36.8978 19.7106L34.8243 19.1484Z" fill="white"/>
<path d="M49.348 42.9287L48.6743 44.6588L50.7477 45.221L51.4214 43.4909L49.348 42.9287Z" fill="white"/>
<path d="M57.7325 37.0955L55.6591 37.6576L56.3328 39.3877L58.4062 38.8255L57.7325 37.0955Z" fill="white"/>
<path d="M58.8198 32.9995L57.0558 34.0685L58.3369 35.5404L60.1008 34.4714L58.8198 32.9995Z" fill="white"/>
<path d="M56.3328 24.9807L55.6591 26.7109L57.7325 27.2731L58.4062 25.543L56.3328 24.9807Z" fill="white"/>
<path d="M55.1809 21.8424H53.0009V23.6616H55.1809V21.8424Z" fill="white"/>
<path d="M36.2397 42.8263L34.1686 43.3903L34.8444 45.1185L36.9155 44.5545L36.2397 42.8263Z" fill="white"/>
<path d="M45.2438 44.1759L43.9575 45.6494L45.7234 46.7226L47.0097 45.2491L45.2438 44.1759Z" fill="white"/>
<path d="M29.1688 34.7512L28.3495 36.0933L29.9579 36.7769L30.7772 35.4348L29.1688 34.7512Z" fill="white"/>
<path d="M34.9836 24.4241H33.4911V25.6695H34.9836V24.4241Z" fill="white"/>
<path d="M31.006 29.7299L29.7988 30.4621L30.6762 31.4695L31.8835 30.7372L31.006 29.7299Z" fill="white"/>
<path d="M48.7558 22.4082L47.3362 22.7928L47.7971 23.9774L49.2167 23.5928L48.7558 22.4082Z" fill="white"/>
<path d="M44.8417 21.3461L43.6344 22.0782L44.5119 23.0856L45.7192 22.3534L44.8417 21.3461Z" fill="white"/>
<path d="M51.8075 36.7478L50.588 36.9094L50.7816 37.9268L52.001 37.7653L51.8075 36.7478Z" fill="white"/>
<path d="M53.2971 31.4551L52.4241 32.1835L53.2971 32.912L54.17 32.1835L53.2971 31.4551Z" fill="white"/>
<path d="M59.6913 25.9667L58.4993 27.9187L60.8386 28.9133L62.0306 26.9612L59.6913 25.9667Z" fill="white"/>
<path d="M55.1809 40.7052H53.0009V42.5243H55.1809V40.7052Z" fill="white"/>
<path d="M29.2392 24.9847L27.1658 25.5469L27.8395 27.277L29.9129 26.7149L29.2392 24.9847Z" fill="white"/>
<path d="M50.7405 19.1515L48.6671 19.7137L49.3408 21.4438L51.4142 20.8816L50.7405 19.1515Z" fill="white"/>
<path d="M40.193 17.7555L38.9067 19.229L40.6727 20.3023L41.9589 18.8288L40.193 17.7555Z" fill="white"/>
<path d="M56.4023 34.7501L54.7938 35.4337L55.613 36.7758L57.2214 36.0922L56.4023 34.7501Z" fill="white"/>
<path d="M28.8814 31.1116L27.605 32.1766L28.8814 33.2417L30.1577 32.1766L28.8814 31.1116Z" fill="white"/>
<path d="M54.8891 32.892L53.6819 33.6242L54.5593 34.6316L55.7666 33.8995L54.8891 32.892Z" fill="white"/>
<path d="M37.7698 40.3843L36.3503 40.7689L36.8113 41.9534L38.2307 41.5687L37.7698 40.3843Z" fill="white"/>
<path d="M42.7828 40.2307L41.9098 40.9592L42.7828 41.6877L43.6557 40.9592L42.7828 40.2307Z" fill="white"/>
<path d="M36.0929 24.5034L35.9003 25.521L37.1197 25.6818L37.3124 24.6641L36.0929 24.5034Z" fill="white"/>
<path d="M32.5153 34.1995L31.9543 35.1172L33.0543 35.5853L33.6151 34.6675L32.5153 34.1995Z" fill="white"/>
<path d="M32.569 21.8424H30.3888V23.6616H32.569V21.8424Z" fill="white"/>
<path d="M45.5229 17.7335L43.7589 18.8025L45.04 20.2745L46.804 19.2055L45.5229 17.7335Z" fill="white"/>
<path d="M46.6881 42.2103L45.8689 43.5524L47.4773 44.236L48.2965 42.8939L46.6881 42.2103Z" fill="white"/>
<path d="M30.7814 38.1415L30.499 39.6291L32.2819 39.8647L32.5642 38.3771L30.7814 38.1415Z" fill="white"/>
<path d="M53.288 24.4974L53.0056 25.985L54.7885 26.2207L55.0708 24.7331L53.288 24.4974Z" fill="white"/>
<path d="M52.0805 38.6902H50.588V39.9356H52.0805V38.6902Z" fill="white"/>
<path d="M54.5593 29.7339L53.6819 30.7413L54.8891 31.4735L55.7666 30.4661L54.5593 29.7339Z" fill="white"/>
<path d="M41.0598 41.2848L39.8523 42.0166L40.7293 43.0243L41.9369 42.2925L41.0598 41.2848Z" fill="white"/>
<path d="M39.2608 23.1528L38.6998 24.0706L39.7998 24.5387L40.3606 23.6209L39.2608 23.1528Z" fill="white"/>
<path d="M45.7596 39.8347L45.1987 40.7525L46.2986 41.2205L46.8595 40.3027L45.7596 39.8347Z" fill="white"/>
<path d="M48.4491 38.6912L48.2565 39.7087L49.4759 39.8696L49.6687 38.852L48.4491 38.6912Z" fill="white"/>
<path d="M33.0577 28.7792L31.9579 29.2473L32.5187 30.165L33.6187 29.6969L33.0577 28.7792Z" fill="white"/>
<path d="M53.0522 34.2014L51.9524 34.6694L52.5133 35.5872L53.6132 35.1192L53.0522 34.2014Z" fill="white"/>
<path d="M33.7676 36.7466L33.575 37.7641L34.7944 37.925L34.9872 36.9074L33.7676 36.7466Z" fill="white"/>
<path d="M49.4797 24.4952L48.2601 24.6561L48.4529 25.6736L49.6724 25.5129L49.4797 24.4952Z" fill="white"/>
<path d="M39.8069 39.8278L38.707 40.2958L39.268 41.2136L40.3678 40.7455L39.8069 39.8278Z" fill="white"/>
<path d="M30.8821 18.5204L30.4714 20.6842L33.0646 21.0269L33.4753 18.863L30.8821 18.5204Z" fill="white"/>
<path d="M52.4949 43.3479L52.0841 45.5118L54.6774 45.8544L55.0881 43.6907L52.4949 43.3479Z" fill="white"/>
<path d="M42.7776 15.2869L40.921 16.836L42.7776 18.3852L44.6341 16.836L42.7776 15.2869Z" fill="white"/>
<path d="M27.2338 28.8234L25.4698 29.8924L26.7511 31.3642L28.515 30.2952L27.2338 28.8234Z" fill="white"/>
<path d="M58.3309 28.8234L57.0498 30.2953L58.8138 31.3644L60.095 29.8925L58.3309 28.8234Z" fill="white"/>
<path d="M32.569 40.7052H30.3888V42.5243H32.569V40.7052Z" fill="white"/>
<path d="M40.5308 44.0914L38.7668 45.1604L40.0481 46.6324L41.812 45.5634L40.5308 44.0914Z" fill="white"/>
<path d="M50.2074 40.7068L49.925 42.1944L51.7079 42.43L51.9903 40.9424L50.2074 40.7068Z" fill="white"/>
<path d="M32.2913 24.5084L30.5085 24.7441L30.7909 26.2317L32.5736 25.996L32.2913 24.5084Z" fill="white"/>
<path d="M54.7861 38.1405L53.0033 38.3761L53.2857 39.8638L55.0685 39.6281L54.7861 38.1405Z" fill="white"/>
<path d="M47.4786 20.1282L45.8701 20.8118L46.6894 22.1539L48.2979 21.4704L47.4786 20.1282Z" fill="white"/>
<path d="M36.8209 22.4144L36.36 23.5989L37.7794 23.9835L38.2404 22.7991L36.8209 22.4144Z" fill="white"/>
<path d="M47.7924 40.3923L47.3314 41.5768L48.751 41.9615L49.2119 40.777L47.7924 40.3923Z" fill="white"/>
<path d="M31.5332 35.9819L31.0723 37.1664L32.4918 37.551L32.9528 36.3666L31.5332 35.9819Z" fill="white"/>
<path d="M52.0805 24.4241H50.588V25.6695H52.0805V24.4241Z" fill="white"/>
<path d="M42.784 22.6785L41.911 23.4069L42.784 24.1354L43.657 23.4069L42.784 22.6785Z" fill="white"/>
<path d="M34.7932 26.4348L33.5736 26.5956L33.7664 27.6132L34.9858 27.4524L34.7932 26.4348Z" fill="white"/>
<path d="M32.2709 31.4541L31.3978 32.1825L32.2709 32.911L33.1439 32.1825L32.2709 31.4541Z" fill="white"/>
<path d="M52.5146 28.7782L51.9536 29.696L53.0534 30.1639L53.6144 29.2462L52.5146 28.7782Z" fill="white"/>
<path d="M50.7736 26.4366L50.5809 27.4542L51.8004 27.6149L51.9932 26.5974L50.7736 26.4366Z" fill="white"/>
<path d="M37.1186 38.6852L35.8992 38.846L36.0918 39.8636L37.3114 39.7027L37.1186 38.6852Z" fill="white"/>
<path d="M46.2986 23.1416L45.1987 23.6096L45.7596 24.5273L46.8595 24.0594L46.2986 23.1416Z" fill="white"/>
</g>
<!-- Code injected by live-server -->
<script>
	// <![CDATA[  <-- For SVG support
	if ('WebSocket' in window) {
		(function () {
			function refreshCSS() {
				var sheets = [].slice.call(document.getElementsByTagName("link"));
				var head = document.getElementsByTagName("head")[0];
				for (var i = 0; i < sheets.length; ++i) {
					var elem = sheets[i];
					var parent = elem.parentElement || head;
					parent.removeChild(elem);
					var rel = elem.rel;
					if (elem.href && typeof rel != "string" || rel.length == 0 || rel.toLowerCase() == "stylesheet") {
						var url = elem.href.replace(/(&|\?)_cacheOverride=\d+/, '');
						elem.href = url + (url.indexOf('?') >= 0 ? '&' : '?') + '_cacheOverride=' + (new Date().valueOf());
					}
					parent.appendChild(elem);
				}
			}
			var protocol = window.location.protocol === 'http:' ? 'ws://' : 'wss://';
			var address = protocol + window.location.host + window.location.pathname + '/ws';
			var socket = new WebSocket(address);
			socket.onmessage = function (msg) {
				if (msg.data == 'reload') window.location.reload();
				else if (msg.data == 'refreshcss') refreshCSS();
			};
			if (sessionStorage && !sessionStorage.getItem('IsThisFirstTime_Log_From_LiveServer')) {
				console.log('Live reload enabled.');
				sessionStorage.setItem('IsThisFirstTime_Log_From_LiveServer', true);
			}
		})();
	}
	else {
		console.error('Upgrade your browser. This Browser is NOT supported WebSocket for Live-Reloading.');
	}
	// ]]>
</script>
</svg>
