<svg width="268" height="66" viewBox="0 0 268 66" fill="none" xmlns="http://www.w3.org/2000/svg">
<path d="M24.1776 45.3941C24.6931 45.0242 25.1055 44.4957 25.4148 43.9143C25.7757 43.2802 25.9819 42.5403 26.085 41.589L27.58 29.5924H25.1055L23.559 41.8004C23.4559 42.6988 23.1981 43.333 22.7341 43.7558C22.3217 44.1786 21.7031 44.39 20.9298 44.39C20.6205 44.39 20.3628 44.3371 20.0535 44.2843C19.7442 44.2314 19.4864 44.0729 19.2802 43.9143C19.074 43.7029 18.9194 43.4915 18.8162 43.1216C18.7131 42.8045 18.7131 42.4346 18.7647 41.9589C18.8162 41.7475 18.8162 41.5362 18.8678 41.3248C18.9194 41.1134 18.9709 40.902 19.074 40.6906C19.1256 40.4792 19.2287 40.2678 19.3318 40.0035C19.4349 39.7922 19.5895 39.4751 19.7442 39.158L17.6821 38.3124C17.2697 38.9466 16.9604 39.6336 16.7026 40.2678C16.4449 40.9548 16.2902 41.5362 16.2387 42.0118C16.1356 42.8045 16.1871 43.4915 16.3933 44.0729C16.5995 44.6542 16.9089 45.1298 17.3213 45.4998C17.7337 45.8697 18.2492 46.0811 18.8162 46.2397C19.3833 46.3982 20.0019 46.5039 20.6205 46.5039C21.3423 46.5039 21.9609 46.3982 22.5795 46.2397C23.1466 46.0811 23.7136 45.8169 24.1776 45.3941Z" fill="white"/>
<path d="M48.2006 37.9952C48.4068 37.731 48.613 37.5196 48.8707 37.361C49.1285 37.2025 49.3862 37.0968 49.644 37.0439C49.9018 36.9911 50.2111 36.9382 50.4173 36.9382C50.7781 36.9382 51.139 36.9382 51.4998 37.0439C51.8607 37.0968 52.1185 37.1496 52.2731 37.2025L52.9433 35.1942C52.634 35.0885 52.2216 34.9828 51.7576 34.93C51.2936 34.8771 50.8297 34.8243 50.3657 34.8243C49.7471 34.8243 49.18 34.93 48.613 35.0885C48.0459 35.2471 47.5304 35.5113 47.0664 35.8813C46.6025 36.2512 46.2416 36.674 45.8808 37.2025C45.5714 37.731 45.3652 38.3651 45.2621 39.0522C45.2106 39.4221 45.2106 39.7921 45.3137 40.1091C45.3652 40.4791 45.5199 40.849 45.6745 41.1661H44.0249C43.7156 41.1661 43.4063 41.1133 43.097 40.9547C42.7877 40.7962 42.5815 40.5848 42.4784 40.3734C42.5299 40.162 42.5815 40.0034 42.633 39.7921C42.6846 39.5807 42.7361 39.3693 42.7361 39.105C42.7877 38.4708 42.7877 37.9424 42.6846 37.4139C42.5815 36.8854 42.3753 36.4626 42.066 36.0398C41.7567 35.6699 41.3442 35.3528 40.8287 35.1414C40.3132 34.93 39.7462 34.8243 39.0244 34.8243C38.4058 34.8243 37.8388 34.93 37.3232 35.1414C36.8077 35.3528 36.3438 35.6699 35.9314 36.0927C35.519 36.5154 35.1581 36.9911 34.9003 37.5724C34.6426 38.1538 34.3848 38.7351 34.2817 39.4221C34.2302 39.6864 34.1271 39.9506 34.0755 40.162C34.024 40.3734 33.9209 40.5319 33.8178 40.6905C33.7147 40.849 33.6116 40.9547 33.4569 41.0604C33.3022 41.1661 33.096 41.1661 32.8898 41.1661H32.4259C32.2197 41.1661 32.065 41.1661 31.8588 41.1133C31.6526 41.0604 31.498 41.0076 31.3948 40.9019C31.2402 40.7962 31.1886 40.6376 31.0855 40.4262C31.034 40.2148 31.034 39.9506 31.0855 39.6335L32.3228 29.698H29.8483L28.508 40.4791C28.4564 41.0076 28.508 41.4832 28.6626 41.8531C28.8173 42.2231 29.1266 42.5402 29.539 42.7516C29.9514 42.963 30.3638 43.1215 30.8793 43.1744C31.3948 43.28 31.9104 43.2801 32.4774 43.2801H33.0445C33.6116 43.2801 34.0755 43.2272 34.4364 43.0687C34.7972 42.9101 35.1065 42.6987 35.4674 42.2759C35.8798 42.6987 36.3438 42.963 36.7562 43.1215C37.2201 43.28 37.6841 43.3329 38.2512 43.3329C38.8698 43.3329 39.4368 43.2272 39.9524 43.0158C40.5194 42.8044 40.9834 42.4873 41.4473 42.0117C41.602 42.2759 41.8082 42.4873 42.0144 42.6459C42.2206 42.8044 42.4784 42.9101 42.6846 43.0158C42.8908 43.1215 43.1485 43.1744 43.3547 43.1744C43.5609 43.2272 43.8187 43.2272 43.9734 43.2272H52.0669L52.3247 41.1661H49.8502C49.1285 41.1661 48.5614 40.9547 48.149 40.5848C47.7366 40.2148 47.5819 39.6864 47.6851 38.9993C47.8913 38.6294 47.9944 38.2594 48.2006 37.9952ZM40.3648 39.2636C40.3132 39.8449 40.0555 40.3205 39.7462 40.6905C39.3853 41.0604 38.9729 41.219 38.4574 41.219C38.0965 41.219 37.7357 41.1661 37.4779 41.0076C37.1686 40.849 36.9108 40.6376 36.6015 40.2677C36.7046 39.7921 36.8077 39.3693 36.9624 38.9993C37.117 38.6294 37.2717 38.2594 37.4779 37.9952C37.6841 37.6781 37.8903 37.4667 38.1481 37.2553C38.4058 37.0968 38.7151 36.9911 39.0244 36.9911C39.54 36.9911 39.9524 37.2025 40.1586 37.6253C40.3648 37.9424 40.4163 38.5237 40.3648 39.2636Z" fill="white"/>
<path d="M60.5735 29.4866H59.4906C59.1297 29.4866 58.8719 29.4338 58.7172 29.2752C58.5625 29.1167 58.4594 28.9053 58.511 28.5882C58.5625 28.324 58.6656 28.1126 58.8719 27.954C59.0781 27.7955 59.336 27.7426 59.6453 27.7426C59.9547 27.7426 60.2125 27.7955 60.4188 27.8483L60.7797 26.8442C60.5735 26.7914 60.4188 26.7385 60.2125 26.7385C60.0063 26.7385 59.8516 26.6857 59.6969 26.6857C59.0782 26.6857 58.5625 26.8442 58.15 27.2142C57.7375 27.5841 57.5313 28.0069 57.4281 28.5882C57.3766 28.8525 57.4281 29.1695 57.5828 29.4866H56.8609L56.7578 30.5436H60.4704L60.5735 29.4866Z" fill="white"/>
<path d="M59.6972 31.7061H57.2737L56.1909 40.3203H58.6144L59.6972 31.7061Z" fill="white"/>
<path d="M68.821 42.4346C69.1819 42.1703 69.4396 41.8004 69.5943 41.3776C69.8005 40.9548 69.9036 40.4792 69.9551 39.8979L71.2439 29.6453H68.7695L67.5322 39.4751C67.4807 39.7922 67.4291 40.0035 67.3776 40.2149C67.326 40.4263 67.1714 40.5849 67.0167 40.7434C66.8621 40.902 66.6559 41.0077 66.3981 41.0605C66.1403 41.1134 65.831 41.1662 65.4702 41.1662C64.8516 41.1662 64.3876 41.0077 64.0783 40.6906C63.769 40.3735 63.6143 39.9507 63.6659 39.3694L64.9031 29.5924H62.4286L61.243 38.8937C61.1399 39.7393 60.9337 40.3206 60.5728 40.6377C60.2119 40.9548 59.6964 41.1134 58.9747 41.1134H54.232L53.9742 43.1745H59.748C60.4181 43.1745 61.0368 43.0688 61.5523 42.9102C62.0678 42.6988 62.4802 42.4346 62.7895 41.9589C62.8926 42.1703 63.0988 42.3817 63.305 42.5403C63.5112 42.6988 63.769 42.8045 63.9752 42.9102C64.2329 43.0159 64.4907 43.0688 64.7485 43.1216C65.0062 43.1745 65.264 43.1745 65.5217 43.1745C66.295 43.1745 66.9136 43.1216 67.4291 42.9631C68.0477 42.9102 68.5117 42.6988 68.821 42.4346Z" fill="white"/>
<path d="M80.7812 48.8291C81.039 48.5649 81.1937 48.2478 81.2453 47.8779C81.2969 47.5079 81.1937 47.1908 81.039 46.9266C80.8328 46.6623 80.5234 46.5566 80.1625 46.5566C79.75 46.5566 79.4406 46.6623 79.1828 46.9266C78.925 47.1908 78.7703 47.5079 78.7187 47.8779C78.6671 48.2478 78.7703 48.5649 78.9765 48.8291C79.1828 49.0934 79.4921 49.1991 79.8531 49.1991C80.214 49.1991 80.5234 49.0934 80.7812 48.8291Z" fill="white"/>
<path d="M88.5135 42.91C88.8743 42.4344 89.029 41.9588 89.1321 41.4303C89.1836 41.1132 89.1321 40.7961 89.029 40.5319C88.9259 40.2676 88.7712 40.0034 88.565 39.792C88.3588 39.5806 88.1526 39.3692 87.8433 39.1578C87.5855 38.9464 87.2762 38.7879 86.9669 38.5765C86.7092 38.4708 86.503 38.3122 86.2967 38.1537C86.0905 37.9951 85.8328 37.8894 85.6781 37.6781C85.5235 37.5195 85.3688 37.361 85.2657 37.2024C85.1626 37.0439 85.1626 36.8325 85.1626 36.6739C85.2142 36.4097 85.2657 36.1983 85.4204 36.0398C85.575 35.8812 85.7812 35.7227 85.9874 35.617C86.1936 35.5113 86.4514 35.4584 86.6576 35.4056C86.9154 35.3527 87.1216 35.3527 87.3278 35.3527C87.6371 35.3527 87.9464 35.3527 88.2557 35.4584C88.565 35.5113 88.7712 35.5641 88.9259 35.617L89.596 33.7144C89.4414 33.6616 89.2867 33.6087 89.1321 33.5559C88.9259 33.503 88.7712 33.4502 88.565 33.4502C88.3588 33.3973 88.1526 33.3973 87.9979 33.3445C87.7917 33.3445 87.6371 33.3445 87.4824 33.3445C86.8123 33.3445 86.1421 33.4502 85.575 33.6087C85.008 33.8201 84.544 34.0315 84.1316 34.3486C83.7192 34.6657 83.4099 35.0356 83.2037 35.4584C82.9459 35.8812 82.8428 36.304 82.7397 36.7796C82.6366 37.4667 82.7913 38.048 83.1006 38.5236C83.4614 38.9993 83.9769 39.4221 84.6987 39.792C85.3688 40.1619 85.8328 40.479 86.1936 40.7433C86.503 41.0075 86.6576 41.2717 86.6061 41.4831C86.6061 41.6417 86.503 41.8002 86.2967 41.9588C86.0905 42.1173 85.8328 42.2759 85.4719 42.3816C85.1111 42.4873 84.6987 42.593 84.2347 42.6987C83.7707 42.7515 83.2037 42.8044 82.5851 42.8044C81.2963 42.8044 80.3168 42.593 79.6982 42.1702C79.0796 41.7474 78.8218 41.1132 78.9249 40.2148C78.9765 39.8448 79.0796 39.4221 79.2858 38.9993C79.492 38.5236 79.6982 38.048 79.9044 37.6252L77.7908 36.7796C77.3784 37.4667 77.0175 38.1008 76.8113 38.735C76.6051 39.3692 76.4505 39.8977 76.3989 40.3205C76.2958 41.1661 76.3474 41.8531 76.6051 42.4344C76.8113 43.0157 77.2237 43.4914 77.7392 43.8613C78.2548 44.2313 78.9249 44.4955 79.6982 44.654C80.4715 44.8126 81.3994 44.9183 82.4304 44.9183C83.4099 44.9183 84.3378 44.8126 85.1111 44.654C85.9359 44.4955 86.6061 44.2313 87.1731 43.9142C87.7402 43.7556 88.1526 43.3857 88.5135 42.91Z" fill="white"/>
<path d="M83.9775 48.8291C84.2353 48.5649 84.39 48.2478 84.4415 47.8779C84.4931 47.5079 84.4415 47.1908 84.2353 46.9266C84.029 46.6623 83.7712 46.5566 83.3587 46.5566C82.9978 46.5566 82.6368 46.6623 82.379 46.9266C82.1212 47.1908 81.9665 47.5079 81.9149 47.8779C81.8634 48.2478 81.9149 48.5649 82.1728 48.8291C82.379 49.0934 82.6884 49.1991 83.0493 49.1991C83.4103 49.1991 83.7196 49.0934 83.9775 48.8291Z" fill="white"/>
<path d="M97.0194 42.4343C97.5865 41.9058 97.9474 41.0074 98.102 39.739L98.2567 38.5235C98.3082 38.0479 98.3082 37.5722 98.1536 37.0966C98.0505 36.6738 97.7927 36.3039 97.4834 35.9868C97.1741 35.6697 96.7617 35.4055 96.1946 35.2469C95.6791 35.0884 95.0605 34.9827 94.2872 34.9827H92.1221L91.8643 37.0438H93.5655C94.3388 37.0438 94.9058 37.2023 95.2667 37.5194C95.6275 37.8365 95.7822 38.3121 95.6791 38.9463L95.6275 39.4219C95.5244 40.0561 95.3698 40.5318 95.0605 40.7431C94.7512 41.0074 94.2872 41.1131 93.7202 41.1131H90.2147L89.9569 43.1742H94.4419C95.576 43.227 96.4524 42.9628 97.0194 42.4343Z" fill="white"/>
<path d="M138.827 42.4345C139.188 42.1702 139.446 41.8003 139.601 41.3775C139.807 40.9547 139.91 40.4791 139.962 39.8977L141.25 29.6451H138.776L137.539 39.475C137.487 39.792 137.436 40.0034 137.384 40.2148C137.332 40.4262 137.178 40.5848 137.023 40.7433C136.868 40.9019 136.662 41.0076 136.404 41.0604C136.147 41.1133 135.837 41.1661 135.477 41.1661C134.858 41.1661 134.394 41.0076 134.085 40.6905C133.775 40.3734 133.621 39.9506 133.724 39.4221L134.291 34.9828H131.816L131.249 39.475C131.146 40.162 130.992 40.6376 130.785 40.849C130.579 41.0604 130.27 41.1661 129.806 41.1661C129.548 41.1661 129.29 41.1133 129.136 41.0604C128.981 41.0076 128.826 40.849 128.775 40.7433C128.672 40.6376 128.672 40.4791 128.62 40.2677C128.62 40.1091 128.62 39.8977 128.62 39.6863L128.981 36.5683H126.661L126.3 39.475C126.197 40.162 126.043 40.6376 125.836 40.849C125.63 41.0604 125.321 41.1661 124.857 41.1661C124.599 41.1661 124.341 41.1133 124.187 41.0604C124.032 41.0076 123.878 40.849 123.826 40.7433C123.723 40.6376 123.723 40.4791 123.671 40.2677C123.671 40.1091 123.671 39.8977 123.671 39.6863L124.084 36.5683H121.609L121.248 39.475C121.145 40.162 120.939 40.5848 120.63 40.849C120.32 41.0604 119.805 41.219 119.135 41.219H117.382C117.227 41.219 117.021 41.219 116.763 41.219C116.506 41.219 116.299 41.1661 116.196 41.1133C116.557 40.9019 116.918 40.6905 117.227 40.4262C117.537 40.162 117.846 39.8977 118.052 39.5807C118.31 39.2636 118.516 38.9993 118.671 38.6822C118.826 38.3651 118.929 38.048 118.98 37.731C119.032 37.2553 118.98 36.8325 118.825 36.4626C118.671 36.0927 118.362 35.8284 118.001 35.5642C117.64 35.3528 117.227 35.1414 116.712 35.0357C116.196 34.93 115.681 34.8771 115.114 34.8771C114.753 34.8771 114.341 34.93 113.928 34.9828C113.516 35.0357 113.155 35.1414 112.794 35.2471C112.433 35.3528 112.072 35.5113 111.763 35.617C111.454 35.7756 111.144 35.8813 110.938 36.0398C110.887 36.1455 110.835 36.304 110.784 36.4626C110.732 36.674 110.68 36.8854 110.577 37.0968C110.526 37.3082 110.474 37.5724 110.371 37.7838C110.32 37.9952 110.268 38.1537 110.268 38.3123C110.577 38.5237 110.835 38.7351 111.093 38.8936C111.299 39.105 111.557 39.2636 111.711 39.475C111.918 39.6863 112.124 39.8977 112.278 40.1091C112.485 40.3205 112.691 40.6376 112.949 40.9547C112.794 41.0076 112.536 41.0604 112.278 41.1133C112.021 41.1661 111.66 41.1661 111.351 41.1661H109.443H108.154L108.464 38.8408C108.567 38.1537 108.515 37.5724 108.361 37.0968C108.206 36.5683 107.948 36.1455 107.639 35.8284C107.33 35.5113 106.917 35.2471 106.453 35.0885C105.989 34.93 105.474 34.8243 104.958 34.8243C104.236 34.8243 103.566 34.93 102.999 35.1942C102.432 35.4585 101.917 35.7756 101.504 36.1983C101.092 36.6211 100.783 37.0968 100.525 37.6781C100.267 38.2066 100.112 38.7879 100.061 39.3693C99.9577 40.0563 100.009 40.6376 100.164 41.1133C100.319 41.5889 100.525 42.0117 100.886 42.3288C101.195 42.6459 101.607 42.8573 102.071 43.0158C102.535 43.1743 103.102 43.2272 103.669 43.2272H105.422C105.371 43.4914 105.319 43.7028 105.216 43.8614C105.113 44.0199 104.958 44.1256 104.752 44.2313C104.546 44.337 104.288 44.3899 104.03 44.3899C103.721 44.4427 103.412 44.4427 103.051 44.4427C102.69 44.4427 102.381 44.4427 102.071 44.3899C101.762 44.337 101.504 44.2842 101.195 44.2313L100.576 46.1867C100.937 46.2924 101.298 46.3452 101.71 46.3981C102.123 46.4509 102.484 46.5038 102.845 46.5038C103.515 46.5038 104.082 46.4509 104.649 46.3452C105.216 46.2396 105.68 46.0282 106.144 45.7639C106.608 45.4997 106.969 45.1826 107.226 44.7598C107.536 44.337 107.742 43.8614 107.897 43.2272H109.598H110.99C111.557 43.2272 112.124 43.1743 112.691 43.0158C113.258 42.8573 113.773 42.6987 114.237 42.4873C114.495 42.6987 114.856 42.8573 115.32 43.0158C115.784 43.1743 116.299 43.2272 116.918 43.2272H119.444C120.372 43.2272 121.094 43.1215 121.712 42.9629C122.279 42.7516 122.743 42.4873 123.053 42.1174C123.207 42.4873 123.465 42.7516 123.929 42.9629C124.341 43.1743 124.857 43.28 125.476 43.28C126.558 43.28 127.435 42.9101 128.053 42.1174C128.208 42.4873 128.517 42.7516 128.878 42.9629C129.29 43.1743 129.806 43.28 130.425 43.28C130.992 43.28 131.456 43.1743 131.92 43.0158C132.383 42.8044 132.744 42.5402 133.054 42.1174C133.157 42.3288 133.363 42.5402 133.569 42.6987C133.775 42.8573 134.033 42.9629 134.239 43.0686C134.497 43.1743 134.755 43.2272 135.013 43.28C135.27 43.3329 135.528 43.3329 135.734 43.3329C136.508 43.3329 137.126 43.28 137.642 43.1215C138.054 42.9101 138.518 42.6987 138.827 42.4345ZM105.835 39.0522L105.577 41.1661H104.185C103.566 41.1661 103.102 41.0076 102.845 40.6376C102.587 40.2677 102.484 39.792 102.535 39.0522C102.587 38.6822 102.69 38.3651 102.793 38.048C102.948 37.7838 103.102 37.5724 103.257 37.361C103.463 37.2025 103.669 37.0439 103.876 36.9911C104.082 36.9382 104.34 36.8854 104.546 36.8854C104.804 36.8854 105.061 36.9382 105.216 37.0439C105.422 37.1496 105.577 37.3082 105.68 37.5196C105.783 37.731 105.835 37.9423 105.886 38.2066C105.886 38.4708 105.886 38.7351 105.835 39.0522ZM115.217 39.6335C115.011 39.792 114.805 39.8977 114.65 40.0563C114.392 39.6335 114.134 39.2107 113.825 38.7351C113.516 38.3123 113.103 37.8895 112.639 37.4667C112.691 37.4139 112.846 37.361 113 37.3082C113.155 37.2553 113.361 37.2025 113.516 37.1496C113.722 37.0968 113.928 37.0439 114.134 37.0439C114.341 36.9911 114.598 36.9911 114.805 36.9911C115.114 36.9911 115.372 36.9911 115.578 37.0968C115.784 37.1496 115.939 37.2553 116.093 37.361C116.196 37.4667 116.299 37.5724 116.351 37.6781C116.403 37.7838 116.403 37.8895 116.403 38.048C116.403 38.2594 116.299 38.4708 116.196 38.6294C116.093 38.8408 115.939 38.9993 115.784 39.2107C115.629 39.3164 115.423 39.475 115.217 39.6335Z" fill="white"/>
<path d="M146.2 29.6451H143.674L141.972 43.2272H144.447L146.2 29.6451Z" fill="white"/>
<path d="M155.015 33.186C155.376 33.186 155.685 33.0803 155.995 32.8161C156.252 32.5518 156.407 32.2347 156.459 31.8648C156.51 31.4949 156.407 31.1778 156.252 30.9135C156.046 30.6493 155.788 30.5436 155.376 30.5436C155.015 30.5436 154.706 30.6493 154.396 30.9135C154.138 31.1778 153.932 31.4949 153.881 31.8648C153.829 32.2347 153.932 32.5518 154.138 32.8161C154.345 33.0275 154.654 33.186 155.015 33.186Z" fill="white"/>
<path d="M165.325 42.4345C165.892 41.906 166.253 41.0076 166.407 39.7392L166.562 38.5237C166.614 37.9952 166.614 37.5196 166.51 37.0968C166.407 36.674 166.201 36.2512 165.943 35.987C165.634 35.6699 165.273 35.4056 164.758 35.2471C164.242 35.0885 163.675 34.9828 162.953 34.9828H161.51L165.479 31.2306L163.984 29.6451L158.417 34.9828L158.159 37.0439H162.077C163.572 37.0439 164.242 37.6781 164.036 38.9465L163.984 39.4221C163.881 40.0034 163.727 40.4791 163.417 40.7433C163.108 41.0076 162.644 41.1661 162.025 41.1661H156.716H155.221L155.994 34.9828H153.52L152.54 42.6459C152.489 43.2272 152.334 43.7028 152.076 43.9671C151.818 44.2313 151.509 44.3899 151.045 44.3899C150.89 44.3899 150.787 44.3899 150.633 44.3899C150.478 44.3899 150.375 44.337 150.22 44.337L149.653 46.2924C149.859 46.3452 150.066 46.3981 150.375 46.4509C150.684 46.5038 150.994 46.5038 151.354 46.5038C151.715 46.5038 152.128 46.4509 152.489 46.3981C152.849 46.2924 153.21 46.1339 153.52 45.9225C153.829 45.6582 154.138 45.3411 154.344 44.9183C154.602 44.4956 154.757 43.9671 154.86 43.28H156.716H162.747C163.881 43.2272 164.758 42.9629 165.325 42.4345Z" fill="white"/>
<path d="M187.956 42.4345C188.317 42.1702 188.575 41.8003 188.729 41.3775C188.884 40.9547 189.039 40.4791 189.09 39.8977L190.379 29.6451H188.008L186.77 39.475C186.719 39.792 186.667 40.0034 186.616 40.2148C186.513 40.4262 186.409 40.5848 186.255 40.7433C186.1 40.9019 185.894 41.0076 185.636 41.0604C185.378 41.1133 185.069 41.1661 184.708 41.1661C184.399 41.1661 184.09 41.1133 183.78 40.9547C183.523 40.7962 183.316 40.5848 183.162 40.3734C183.213 40.162 183.265 40.0034 183.316 39.792C183.368 39.5806 183.419 39.3693 183.419 39.105C183.471 38.4708 183.471 37.9423 183.368 37.4139C183.265 36.8854 183.059 36.4626 182.698 36.0398C182.388 35.6699 181.976 35.3528 181.46 35.1414C180.945 34.93 180.378 34.8243 179.656 34.8243C179.038 34.8243 178.471 34.93 177.955 35.1414C177.44 35.3528 176.976 35.6699 176.563 36.0926C176.151 36.5154 175.841 36.9911 175.532 37.5724C175.274 38.1537 175.068 38.7351 174.913 39.4221C174.862 39.6863 174.759 39.9506 174.707 40.162C174.656 40.3734 174.553 40.5319 174.45 40.6905C174.346 40.849 174.243 40.9547 174.089 41.0604C173.934 41.1661 173.728 41.1661 173.522 41.1661H173.058H171.563L172.336 34.9828H169.861L168.882 42.6459C168.779 43.2272 168.624 43.7028 168.418 43.9671C168.212 44.2313 167.851 44.3899 167.387 44.3899C167.284 44.3899 167.129 44.3899 166.975 44.337C166.872 44.337 166.717 44.2842 166.562 44.2842L165.995 46.2924C166.201 46.3452 166.408 46.3981 166.717 46.4509C167.026 46.5038 167.335 46.5038 167.696 46.5038C168.057 46.5038 168.47 46.4509 168.83 46.3981C169.191 46.2924 169.552 46.1339 169.861 45.9225C170.171 45.7111 170.48 45.3411 170.686 44.9183C170.892 44.4956 171.099 43.9671 171.202 43.28H173.058H173.625C174.192 43.28 174.656 43.2272 174.965 43.0686C175.326 42.9101 175.635 42.6987 175.996 42.2759C176.408 42.6987 176.872 42.9629 177.285 43.1215C177.697 43.28 178.213 43.3329 178.78 43.3329C179.398 43.3329 179.966 43.2272 180.481 43.0158C181.048 42.8044 181.512 42.4873 181.976 42.0117C182.131 42.2759 182.337 42.4873 182.543 42.6459C182.749 42.8044 183.007 42.9101 183.213 43.0158C183.471 43.1215 183.677 43.1743 183.883 43.1743C184.09 43.2272 184.347 43.2272 184.502 43.2272C185.275 43.2272 185.894 43.1743 186.409 43.0158C187.183 42.9101 187.647 42.6987 187.956 42.4345ZM180.945 39.2636C180.893 39.8449 180.687 40.3205 180.326 40.6905C179.966 41.0604 179.553 41.219 179.038 41.219C178.677 41.219 178.316 41.1661 178.007 41.0076C177.697 40.849 177.439 40.6376 177.13 40.2677C177.233 39.792 177.336 39.3693 177.491 38.9993C177.646 38.6294 177.8 38.2594 178.007 37.9952C178.213 37.6781 178.419 37.4667 178.677 37.2553C178.934 37.0968 179.244 36.9911 179.553 36.9911C180.069 36.9911 180.481 37.2025 180.687 37.6253C180.997 37.9423 181.048 38.5237 180.945 39.2636Z" fill="white"/>
<path d="M192.854 29.6451L191.152 43.2272H193.627L195.329 29.6451H192.854Z" fill="white"/>
<path d="M4.1241 54.9067C4.27875 54.7481 4.43341 54.5896 4.63961 54.4839C4.84582 54.3782 5.10357 54.2725 5.30978 54.2725C5.56754 54.2196 5.82529 54.2196 6.08305 54.2196C6.54701 54.2196 6.95942 54.2725 7.42338 54.3253C7.88734 54.431 8.3513 54.5367 8.76371 54.6953L9.48543 52.5285C9.02147 52.3699 8.50596 52.2642 7.93889 52.1586C7.37183 52.0529 6.75322 52.0529 6.1346 52.0529C5.61909 52.0529 5.05202 52.1057 4.48496 52.2643C3.9179 52.4228 3.40238 52.6342 2.93842 52.9513C2.47446 53.2684 2.06205 53.6383 1.75274 54.1668C1.44344 54.6424 1.23723 55.2238 1.13413 55.9108C1.08258 56.4393 1.08258 56.8621 1.23723 57.2849C1.34033 57.6548 1.54654 58.0247 1.80429 58.3418C2.06205 58.6589 2.42291 58.9232 2.78377 59.1874C3.19618 59.4516 3.60859 59.663 4.1241 59.8744C4.53651 60.033 4.89737 60.1915 5.20668 60.3501C5.51599 60.5086 5.77374 60.6672 5.92839 60.8257C6.1346 60.9842 6.2377 61.1956 6.3408 61.3542C6.39236 61.5656 6.44391 61.777 6.39236 61.9884C6.28925 62.5168 6.08305 62.8868 5.67064 63.151C5.25823 63.4153 4.69116 63.521 3.96945 63.521C3.50549 63.521 2.98997 63.4681 2.42291 63.3624C1.85585 63.2567 1.28878 63.0982 0.721718 62.8339L0 65.0536C0.618615 65.265 1.28878 65.4764 1.95895 65.5821C2.62911 65.6878 3.24773 65.7406 3.86634 65.7406C4.48496 65.7406 5.10358 65.6878 5.72219 65.5292C6.28925 65.3707 6.85632 65.1593 7.32028 64.8422C7.78424 64.5251 8.19665 64.1023 8.55751 63.6267C8.86682 63.151 9.07302 62.5697 9.17612 61.8827C9.27923 61.3013 9.22768 60.8257 9.12457 60.4029C9.02147 59.9801 8.81527 59.6102 8.50596 59.2931C8.19665 58.976 7.88734 58.7118 7.47493 58.4475C7.06252 58.2361 6.59856 57.9719 6.1346 57.7605C5.72219 57.6019 5.41288 57.4434 5.10358 57.2849C4.79427 57.1263 4.58806 56.9678 4.43341 56.8092C4.2272 56.6507 4.1241 56.4921 4.07255 56.2807C4.021 56.1222 3.96945 55.9108 4.021 55.6465C3.9179 55.2766 4.021 55.0652 4.1241 54.9067Z" fill="white"/>
<path d="M15.4653 55.4352C15.0013 55.4352 14.4342 55.488 13.8672 55.5937C13.2486 55.6994 12.7331 55.858 12.3206 56.0165L12.5784 57.9191C13.0424 57.7605 13.5063 57.602 13.9187 57.5491C14.3312 57.4963 14.7436 57.4434 15.0529 57.4434C15.7746 57.4434 16.2901 57.602 16.5994 57.8662C16.9087 58.1305 17.0634 58.5532 16.9603 59.0817L16.9087 59.2931C16.1354 59.2931 15.3622 59.346 14.5889 59.3988C13.8156 59.5045 13.1455 59.6631 12.5784 59.8744C12.0113 60.0858 11.5474 60.4558 11.135 60.8786C10.7741 61.3014 10.5679 61.8827 10.4648 62.6226C10.4133 63.2039 10.4648 63.6795 10.5679 64.0495C10.7226 64.4194 10.9288 64.7365 11.2381 65.0007C11.5474 65.265 11.9082 65.4235 12.2691 65.5292C12.6815 65.6349 13.0939 65.6878 13.5063 65.6878C14.1249 65.6878 14.7436 65.5821 15.2591 65.3178C15.7746 65.0536 16.187 64.7365 16.4447 64.2609H16.4963C16.4963 64.4194 16.4963 64.6308 16.4963 64.8422C16.4963 65.1064 16.4963 65.265 16.5479 65.4235H18.8161C18.8161 65.1064 18.8161 64.7894 18.8161 64.3666C18.8677 63.9438 18.8677 63.5738 18.9192 63.2039L19.4347 59.1874C19.5894 58.0248 19.3832 57.0735 18.713 56.4393C18.1459 55.7523 17.0118 55.4352 15.4653 55.4352ZM16.651 61.6184C16.5994 61.8827 16.5479 62.1998 16.4447 62.4112C16.3416 62.6754 16.187 62.8868 15.9808 63.1511C15.7746 63.3624 15.5168 63.5738 15.2591 63.6795C14.9498 63.7852 14.6405 63.8381 14.2796 63.8381C13.8672 63.8381 13.5063 63.7324 13.3001 63.4681C13.0939 63.2567 12.9908 62.8868 13.0424 62.5169C13.0939 62.1998 13.197 61.9355 13.4032 61.7241C13.6094 61.5127 13.8672 61.3542 14.1765 61.2485C14.4858 61.1428 14.8467 61.0371 15.2075 60.9843C15.6199 60.9314 16.0323 60.9314 16.4447 60.9314H16.8056L16.651 61.6184Z" fill="white"/>
<path d="M28.0954 60.9315C28.0439 61.4599 27.9408 61.8827 27.7346 62.1998C27.5799 62.5698 27.3737 62.834 27.1675 63.0454C26.9613 63.2568 26.7036 63.4153 26.4458 63.521C26.188 63.6267 25.9303 63.6796 25.6725 63.6796C25.3117 63.6796 25.0539 63.6267 24.8477 63.521C24.6415 63.4153 24.4868 63.2039 24.3837 62.9925C24.2806 62.7812 24.2291 62.5169 24.1775 62.1998C24.1775 61.8827 24.1775 61.5656 24.2291 61.1428L24.8993 55.6995H22.3217L21.4969 62.147C21.4453 62.6755 21.4453 63.2039 21.5484 63.6267C21.6515 64.0495 21.8577 64.4195 22.1155 64.7365C22.3732 65.0536 22.7341 65.265 23.1465 65.4764C23.5589 65.6878 24.0744 65.7407 24.5899 65.7407C25.2086 65.7407 25.7756 65.5821 26.3427 65.3179C26.9098 65.0536 27.3222 64.6837 27.6315 64.1552H27.683L27.5284 65.4764H30.0544L31.2916 55.6995H28.7141L28.0954 60.9315Z" fill="white"/>
<path d="M40.21 56.7563C39.9007 56.2807 39.4883 55.9636 39.0243 55.7522C38.5603 55.5408 38.0448 55.4351 37.4778 55.4351C36.8076 55.4351 36.2405 55.5408 35.6735 55.8579C35.1064 56.1222 34.6424 56.4921 34.23 56.9149C33.8176 57.3905 33.5083 57.919 33.2506 58.5532C32.9928 59.1874 32.8381 59.8744 32.735 60.5614C32.6319 61.2485 32.6319 61.9355 32.735 62.5697C32.8381 63.2039 33.0443 63.7323 33.3021 64.208C33.5599 64.6836 33.9723 65.0535 34.4362 65.3178C34.9002 65.582 35.4673 65.7406 36.1374 65.7406C36.7045 65.7406 37.22 65.6349 37.7871 65.3706C38.3541 65.1064 38.8181 64.7893 39.282 64.2608H39.3336L39.1789 65.4763H41.705L43.4062 51.8943H40.8286L40.21 56.7563ZM39.9007 60.5086C39.8491 60.9842 39.746 61.407 39.5914 61.7769C39.4367 62.1469 39.2305 62.5168 39.0243 62.7811C38.7665 63.0453 38.5088 63.2567 38.1995 63.4152C37.8902 63.5738 37.5293 63.6795 37.1684 63.6795C36.8076 63.6795 36.4983 63.5738 36.2405 63.4152C35.9828 63.2567 35.7766 63.0453 35.6735 62.7282C35.5188 62.464 35.4673 62.094 35.4157 61.7241C35.3642 61.3542 35.4157 60.9314 35.4673 60.5086C35.5188 60.0329 35.6219 59.663 35.725 59.2931C35.8797 58.9231 36.0343 58.606 36.2405 58.2889C36.4467 58.0247 36.7045 57.8133 37.0138 57.6019C37.3231 57.4434 37.6324 57.3377 37.9933 57.3377C38.3541 57.3377 38.6634 57.4434 38.9212 57.5491C39.1789 57.7076 39.4367 57.919 39.5914 58.1833C39.746 58.4475 39.8491 58.7646 39.9522 59.1874C39.9522 59.663 39.9522 60.0858 39.9007 60.5086Z" fill="white"/>
<path d="M44.2311 65.4236H46.7577L47.9952 55.6466H45.4686L44.2311 65.4236Z" fill="white"/>
<path d="M45.6229 54.1668H48.2011L48.5104 51.8943H45.9323L45.6229 54.1668Z" fill="white"/>
<path d="M63.9237 53.0042C63.6144 52.7399 63.202 52.5285 62.7381 52.4228C62.2741 52.3171 61.7586 52.2114 61.1915 52.2114H55.8302L54.1805 65.4235H59.645C60.3667 65.4235 60.9853 65.3178 61.5524 65.1064C62.1194 64.8951 62.5834 64.6308 62.9443 64.3137C63.3567 63.9966 63.6144 63.5738 63.8722 63.1511C64.0784 62.7283 64.233 62.2526 64.2846 61.7241C64.3361 61.2485 64.3361 60.8257 64.233 60.4558C64.1299 60.0858 64.0268 59.8216 63.8206 59.5574C63.6144 59.2931 63.4082 59.0817 63.1505 58.976C62.8927 58.8175 62.5834 58.6589 62.2741 58.6061V58.5532C62.8927 58.3418 63.4082 57.9719 63.8722 57.4963C64.3361 57.0206 64.5939 56.3865 64.7485 55.5409C64.8001 54.9595 64.8001 54.4311 64.6454 54.0083C64.4908 53.5855 64.233 53.2684 63.9237 53.0042ZM61.6555 61.5128C61.6039 61.8827 61.5008 62.1469 61.3977 62.3583C61.2946 62.5697 61.0884 62.7811 60.8822 62.8868C60.676 62.9925 60.4182 63.0982 60.1089 63.1511C59.8512 63.2039 59.5419 63.2568 59.181 63.2568H57.0674L57.5314 59.7688H59.3357C59.6965 59.7688 60.0574 59.7688 60.3667 59.8744C60.676 59.9273 60.9338 60.033 61.14 60.1387C61.3462 60.2972 61.5008 60.4558 61.6039 60.6672C61.707 60.8786 61.707 61.1957 61.6555 61.5128ZM62.0679 55.9108C61.9648 56.4921 61.7586 56.9149 61.3462 57.1792C60.9338 57.4434 60.3667 57.5491 59.645 57.5491H57.7891L58.2015 54.3254H60.212C60.4698 54.3254 60.7276 54.3254 60.9853 54.3782C61.2431 54.4311 61.4493 54.4839 61.6039 54.5896C61.7586 54.6953 61.9132 54.8538 62.0163 55.0652C62.0679 55.3295 62.0679 55.5937 62.0679 55.9108Z" fill="white"/>
<path d="M72.7903 60.9315C72.7387 61.4599 72.6356 61.8827 72.4294 62.1998C72.2747 62.5698 72.0685 62.834 71.8623 63.0454C71.6561 63.2568 71.3984 63.4153 71.1406 63.521C70.8829 63.6267 70.6251 63.6796 70.3674 63.6796C70.0065 63.6796 69.7487 63.6267 69.5425 63.521C69.3363 63.4153 69.1817 63.2039 69.0786 62.9925C68.9755 62.7812 68.9239 62.5169 68.8724 62.1998C68.8724 61.8827 68.8724 61.5656 68.9239 61.1428L69.5941 55.6995H67.0165L66.1917 62.147C66.1401 62.6755 66.1401 63.2039 66.2433 63.6267C66.3464 64.0495 66.5526 64.4195 66.8103 64.7365C67.0681 65.0536 67.4289 65.265 67.8413 65.4764C68.2537 65.6878 68.7693 65.7407 69.2848 65.7407C69.9034 65.7407 70.4705 65.5821 71.0375 65.3179C71.6046 65.0536 72.017 64.6837 72.3263 64.1552H72.3778L72.2232 65.4764H74.7492L75.9864 55.6995H73.4089L72.7903 60.9315Z" fill="white"/>
<path d="M80.6261 57.602C80.8839 57.4963 81.1932 57.4434 81.5541 57.4434C81.9149 57.4434 82.3273 57.4963 82.7397 57.5491C83.1522 57.602 83.6161 57.7605 84.0801 57.9719L84.9049 56.0165C84.4409 55.858 83.977 55.6994 83.4099 55.5937C82.8429 55.488 82.3273 55.4352 81.8118 55.4352C81.3479 55.4352 80.8839 55.488 80.4199 55.5937C79.956 55.6994 79.5436 55.9108 79.1312 56.1222C78.7703 56.3865 78.4094 56.7035 78.1517 57.0735C77.8939 57.4434 77.7393 57.9191 77.6362 58.4475C77.5331 59.1346 77.6877 59.7688 78.1001 60.1915C78.5125 60.6672 79.1827 61.09 80.1622 61.4071C80.8839 61.6184 81.3994 61.8298 81.6572 62.0412C81.9149 62.2526 82.018 62.464 82.018 62.7283C81.9665 63.0454 81.8118 63.2567 81.5541 63.4153C81.2963 63.521 80.8839 63.6267 80.4199 63.6267C80.0591 63.6267 79.5436 63.5738 79.0281 63.4681C78.5125 63.3624 77.9455 63.2039 77.4815 62.9397L76.7083 64.9479C77.1722 65.1593 77.7393 65.3178 78.3579 65.4235C78.9765 65.5292 79.5951 65.6349 80.1622 65.6349C80.6261 65.6349 81.0901 65.5821 81.6056 65.4764C82.0696 65.3707 82.5335 65.2121 82.9459 65.0007C83.3584 64.7894 83.6677 64.4723 83.977 64.0495C84.2863 63.6795 84.4409 63.2039 84.4925 62.6226C84.544 62.1998 84.544 61.8298 84.4409 61.5128C84.3378 61.1957 84.1832 60.9314 83.9254 60.6672C83.6677 60.4029 83.3584 60.1915 82.9975 59.9801C82.6366 59.7688 82.2242 59.6102 81.7087 59.4517C81.0386 59.2403 80.6261 59.0289 80.3684 58.8703C80.1622 58.7118 80.0591 58.4475 80.1106 58.1833C80.2653 57.9191 80.4199 57.7077 80.6261 57.602Z" fill="white"/>
<path d="M86.1936 65.4236H88.7718L90.0093 55.6466H87.4311L86.1936 65.4236Z" fill="white"/>
<path d="M87.6371 54.1668H90.1637L90.473 51.8943H87.8949L87.6371 54.1668Z" fill="white"/>
<path d="M100.422 56.3864C100.164 56.0694 99.8032 55.858 99.3908 55.6466C98.9784 55.488 98.5145 55.3823 97.9474 55.3823C97.3288 55.3823 96.7617 55.488 96.1946 55.7523C95.6276 56.0165 95.2152 56.3864 94.9059 56.9149H94.8543L95.009 55.5937H92.483L91.2457 65.3707H93.8233L94.4935 60.0858C94.545 59.6102 94.6481 59.1874 94.8543 58.8175C95.009 58.4475 95.2152 58.1833 95.4214 57.9719C95.6276 57.7605 95.8853 57.602 96.1431 57.4963C96.4009 57.3906 96.6586 57.3377 96.8648 57.3377C97.2257 57.3377 97.4834 57.3906 97.6896 57.4963C97.8958 57.602 98.0505 57.7605 98.1536 57.9719C98.2567 58.1833 98.3083 58.4475 98.3598 58.7646C98.3598 59.0817 98.3598 59.4517 98.3082 59.8216L97.6381 65.265H100.216L101.04 58.8175C101.092 58.289 101.092 57.8134 100.989 57.3906C100.886 57.0735 100.68 56.7035 100.422 56.3864Z" fill="white"/>
<path d="M111.299 56.7564C110.99 56.3336 110.577 56.0165 110.062 55.8051C109.546 55.5937 108.928 55.488 108.258 55.488C107.536 55.488 106.866 55.5937 106.196 55.858C105.577 56.1222 105.01 56.4922 104.546 56.9149C104.082 57.3906 103.67 57.9191 103.412 58.5532C103.102 59.1874 102.896 59.8745 102.793 60.6143C102.69 61.3542 102.742 62.0412 102.896 62.6754C103.051 63.3096 103.36 63.8381 103.721 64.2609C104.133 64.7365 104.649 65.0536 105.268 65.3178C105.886 65.5821 106.659 65.6878 107.484 65.6878C108.051 65.6878 108.567 65.6349 109.031 65.5821C109.495 65.5292 109.959 65.4235 110.423 65.265L110.371 63.3625C110.01 63.4682 109.598 63.5738 109.186 63.6267C108.773 63.6795 108.412 63.7324 108.051 63.7324C107.639 63.7324 107.278 63.6795 106.917 63.5738C106.556 63.4681 106.247 63.3625 105.989 63.1511C105.732 62.9925 105.525 62.7283 105.422 62.464C105.268 62.1469 105.216 61.8298 105.216 61.3542H111.763L111.918 60.2972C112.021 59.5574 112.021 58.8703 111.918 58.289C111.815 57.6548 111.608 57.1792 111.299 56.7564ZM109.701 59.5045H105.577C105.732 58.8175 106.041 58.289 106.505 57.8662C106.969 57.4434 107.484 57.232 108.103 57.232C108.67 57.232 109.134 57.4434 109.443 57.8662C109.649 58.2362 109.753 58.8175 109.701 59.5045Z" fill="white"/>
<path d="M116.66 57.602C116.918 57.4963 117.228 57.4434 117.588 57.4434C117.949 57.4434 118.362 57.4963 118.774 57.5491C119.187 57.602 119.65 57.7605 120.114 57.9719L120.939 56.0165C120.475 55.858 120.011 55.6994 119.444 55.5937C118.877 55.488 118.362 55.4352 117.846 55.4352C117.382 55.4352 116.918 55.488 116.454 55.5937C115.99 55.6994 115.578 55.9108 115.166 56.1222C114.805 56.3865 114.444 56.7035 114.238 57.0735C113.98 57.4434 113.825 57.9191 113.722 58.4475C113.619 59.1346 113.774 59.7688 114.186 60.1915C114.598 60.6672 115.269 61.09 116.248 61.4071C116.97 61.6184 117.434 61.8298 117.743 62.0412C118.001 62.2526 118.155 62.464 118.104 62.7283C118.052 63.0454 117.898 63.2567 117.64 63.4153C117.382 63.521 116.97 63.6267 116.454 63.6267C116.093 63.6267 115.629 63.5738 115.062 63.4681C114.495 63.3624 113.98 63.2039 113.464 62.9397L112.691 64.9479C113.155 65.1593 113.722 65.3178 114.341 65.4235C114.959 65.5292 115.578 65.6349 116.197 65.6349C116.66 65.6349 117.124 65.5821 117.64 65.4764C118.104 65.3707 118.568 65.2121 118.98 65.0007C119.393 64.7894 119.702 64.4723 120.011 64.0495C120.269 63.6795 120.475 63.2039 120.527 62.6226C120.578 62.1998 120.578 61.8298 120.475 61.5128C120.372 61.1957 120.218 60.9314 119.96 60.6672C119.702 60.4029 119.393 60.1915 119.032 59.9801C118.671 59.7688 118.259 59.6102 117.743 59.4517C117.073 59.2403 116.66 59.0289 116.403 58.8703C116.197 58.7118 116.093 58.4475 116.093 58.1833C116.3 57.9191 116.454 57.7077 116.66 57.602Z" fill="white"/>
<path d="M125.373 57.602C125.63 57.4963 125.94 57.4434 126.301 57.4434C126.662 57.4434 127.074 57.4963 127.486 57.5491C127.899 57.602 128.363 57.7605 128.827 57.9719L129.651 56.0165C129.188 55.858 128.724 55.6994 128.156 55.5937C127.589 55.488 127.074 55.4352 126.558 55.4352C126.094 55.4352 125.63 55.488 125.167 55.5937C124.703 55.6994 124.29 55.9108 123.878 56.1222C123.517 56.3865 123.156 56.7035 122.898 57.0735C122.641 57.4434 122.486 57.9191 122.383 58.4475C122.28 59.1346 122.434 59.7688 122.847 60.1915C123.259 60.6672 123.929 61.09 124.909 61.4071C125.63 61.6184 126.146 61.8298 126.404 62.0412C126.662 62.2526 126.765 62.464 126.765 62.7283C126.713 63.0454 126.558 63.2567 126.301 63.4153C126.043 63.521 125.63 63.6267 125.167 63.6267C124.806 63.6267 124.29 63.5738 123.775 63.4681C123.259 63.3624 122.692 63.2039 122.228 62.9397L121.455 64.9479C121.919 65.1593 122.486 65.3178 123.104 65.4235C123.723 65.5292 124.342 65.6349 124.909 65.6349C125.373 65.6349 125.837 65.5821 126.352 65.4764C126.816 65.3707 127.28 65.2121 127.693 65.0007C128.105 64.7894 128.414 64.4723 128.724 64.0495C129.033 63.6795 129.188 63.2039 129.239 62.6226C129.291 62.1998 129.291 61.8298 129.188 61.5128C129.084 61.1957 128.93 60.9314 128.672 60.6672C128.414 60.4029 128.105 60.1915 127.744 59.9801C127.383 59.7688 126.971 59.6102 126.455 59.4517C125.785 59.2403 125.373 59.0289 125.115 58.8703C124.909 58.7118 124.806 58.4475 124.857 58.1833C124.96 57.9191 125.115 57.7077 125.373 57.602Z" fill="white"/>
<path d="M143.519 52C142.488 52 141.56 52.1585 140.735 52.5285C139.859 52.8456 139.137 53.3212 138.467 53.9554C137.848 54.5367 137.333 55.2766 136.92 56.1222C136.508 56.9678 136.25 57.8662 136.147 58.8703C136.044 59.8744 136.044 60.7728 136.25 61.6184C136.456 62.464 136.817 63.151 137.281 63.7852C137.745 64.4194 138.415 64.8422 139.137 65.2121C139.91 65.5292 140.735 65.7406 141.714 65.7406C142.282 65.7406 142.849 65.6877 143.416 65.582C143.983 65.4764 144.498 65.3707 144.962 65.1593L144.756 63.0453C144.395 63.2039 143.983 63.3096 143.57 63.4153C143.158 63.521 142.694 63.521 142.23 63.521C141.56 63.521 140.941 63.4153 140.477 63.151C140.013 62.8868 139.601 62.5697 139.292 62.1469C138.982 61.7241 138.828 61.2485 138.725 60.6671C138.621 60.0858 138.621 59.5573 138.673 58.9231C138.776 58.289 138.931 57.6548 139.137 57.0734C139.395 56.4921 139.704 56.0165 140.116 55.5937C140.529 55.1709 140.993 54.801 141.56 54.5896C142.127 54.3253 142.746 54.2196 143.416 54.2196C143.828 54.2196 144.189 54.2725 144.601 54.3253C144.962 54.431 145.323 54.5367 145.684 54.6424L146.457 52.5285C146.045 52.3699 145.581 52.2114 145.117 52.1585C144.601 52.0528 144.086 52 143.519 52Z" fill="white"/>
<path d="M155.066 56.7564C154.757 56.3336 154.344 56.0165 153.829 55.8051C153.313 55.5937 152.695 55.488 152.025 55.488C151.303 55.488 150.633 55.5937 149.963 55.858C149.344 56.1222 148.777 56.4922 148.313 56.9149C147.849 57.3906 147.437 57.9191 147.179 58.5532C146.869 59.1874 146.663 59.8745 146.612 60.6143C146.509 61.3542 146.56 62.0412 146.715 62.6754C146.869 63.3096 147.179 63.8381 147.54 64.2609C147.952 64.7365 148.468 65.0536 149.086 65.3178C149.705 65.5821 150.478 65.6878 151.303 65.6878C151.87 65.6878 152.385 65.6349 152.849 65.5821C153.313 65.5292 153.777 65.4235 154.241 65.265L154.19 63.3625C153.829 63.4682 153.417 63.5738 153.004 63.6267C152.592 63.6795 152.179 63.7324 151.87 63.7324C151.458 63.7324 151.097 63.6795 150.736 63.5738C150.375 63.4681 150.066 63.3625 149.808 63.1511C149.55 62.9925 149.344 62.7283 149.241 62.464C149.086 62.1469 149.035 61.8298 149.035 61.3542H155.582L155.736 60.2972C155.839 59.5574 155.839 58.8703 155.736 58.289C155.582 57.6548 155.375 57.1792 155.066 56.7564ZM153.468 59.5045H149.344C149.499 58.8175 149.808 58.289 150.272 57.8662C150.736 57.4434 151.251 57.232 151.87 57.232C152.437 57.232 152.901 57.4434 153.21 57.8662C153.417 58.2362 153.52 58.8175 153.468 59.5045Z" fill="white"/>
<path d="M166.253 56.3864C165.995 56.0694 165.634 55.858 165.222 55.6466C164.809 55.488 164.346 55.3823 163.778 55.3823C163.16 55.3823 162.593 55.488 162.026 55.7523C161.459 56.0165 160.995 56.3864 160.737 56.9149H160.685L160.84 55.5937H158.314L157.077 65.3707H159.654L160.325 60.0858C160.376 59.6102 160.479 59.1874 160.685 58.8175C160.84 58.4475 161.046 58.1833 161.304 57.9719C161.51 57.7605 161.768 57.602 162.026 57.4963C162.283 57.3906 162.541 57.3377 162.799 57.3377C163.16 57.3377 163.418 57.3906 163.624 57.4963C163.83 57.602 163.985 57.7605 164.088 57.9719C164.191 58.1833 164.242 58.4475 164.242 58.7646C164.242 59.0817 164.242 59.4517 164.191 59.8216L163.521 65.265H166.098L166.872 58.976C166.923 58.4475 166.923 57.9719 166.82 57.5491C166.717 57.0735 166.511 56.7035 166.253 56.3864Z" fill="white"/>
<path d="M173.006 53.0569H170.429L170.119 55.6465H168.624L168.366 57.6547H169.861L169.243 62.7281C169.191 63.2038 169.191 63.6266 169.191 63.9437C169.243 64.3136 169.346 64.5778 169.501 64.8421C169.655 65.0535 169.965 65.2649 170.274 65.3706C170.635 65.4763 171.099 65.5291 171.717 65.5291C172.027 65.5291 172.284 65.5291 172.594 65.4763C172.903 65.4763 173.161 65.4234 173.418 65.4234L173.676 63.468C173.522 63.468 173.367 63.5209 173.264 63.5209C173.109 63.5209 173.006 63.5209 172.851 63.5209C172.645 63.5209 172.439 63.5209 172.284 63.468C172.13 63.4152 172.027 63.3623 171.975 63.2566C171.923 63.1509 171.872 62.9924 171.872 62.781C171.872 62.5696 171.872 62.3054 171.923 61.9883L172.491 57.6018H174.501L174.759 55.5936H172.748L173.006 53.0569Z" fill="white"/>
<path d="M183.574 56.7564C183.265 56.3336 182.852 56.0165 182.337 55.8051C181.821 55.5937 181.203 55.488 180.533 55.488C179.811 55.488 179.141 55.5937 178.471 55.858C177.852 56.1222 177.285 56.4922 176.821 56.9149C176.357 57.3906 175.945 57.9191 175.687 58.5532C175.377 59.1874 175.171 59.8745 175.12 60.6143C175.017 61.3542 175.068 62.0412 175.223 62.6754C175.377 63.3096 175.687 63.8381 176.048 64.2609C176.46 64.7365 176.976 65.0536 177.594 65.3178C178.213 65.5821 178.986 65.6878 179.811 65.6878C180.378 65.6878 180.893 65.6349 181.357 65.5821C181.821 65.5292 182.285 65.4235 182.749 65.265L182.698 63.3625C182.337 63.4682 181.924 63.5738 181.512 63.6267C181.1 63.6795 180.739 63.7324 180.378 63.7324C179.966 63.7324 179.605 63.6795 179.244 63.5738C178.883 63.4681 178.574 63.3625 178.316 63.1511C178.058 62.9925 177.852 62.7283 177.749 62.464C177.594 62.1469 177.543 61.8298 177.543 61.3542H184.09L184.244 60.2972C184.347 59.5574 184.347 58.8703 184.244 58.289C184.09 57.6548 183.883 57.1792 183.574 56.7564ZM181.976 59.5045H177.852C178.007 58.8175 178.316 58.289 178.78 57.8662C179.244 57.4434 179.759 57.232 180.378 57.232C180.945 57.232 181.409 57.4434 181.718 57.8662C181.924 58.2362 182.028 58.8175 181.976 59.5045Z" fill="white"/>
<path d="M191.925 55.4352C190.739 55.4352 189.812 55.9108 189.244 56.9149H189.193L189.348 55.6466H186.822L185.584 65.4235H188.162L188.781 60.72C188.832 60.1387 188.987 59.6102 189.141 59.1874C189.296 58.7646 189.502 58.3947 189.76 58.1833C190.018 57.9191 190.276 57.7077 190.585 57.602C190.894 57.4963 191.152 57.4434 191.513 57.4434C191.667 57.4434 191.771 57.4434 191.874 57.4434C191.977 57.4434 192.131 57.4963 192.234 57.4963L192.595 55.488C192.492 55.488 192.389 55.488 192.234 55.488C192.183 55.4352 192.028 55.4352 191.925 55.4352Z" fill="white"/>
<path d="M257.55 39.7919C257.189 40.3732 256.519 40.6903 255.849 40.4789C254.612 40.109 253.374 39.6862 252.137 39.3691C250.9 38.9992 249.663 38.6821 248.477 38.3121C246.003 37.6779 243.528 37.0966 241.054 36.621C239.868 36.4096 239.095 35.2469 239.301 34.0314C239.353 33.82 239.404 33.5558 239.559 33.3444C240.796 31.0719 242.085 29.0636 243.477 27.1083C244.868 25.1529 246.312 23.2503 247.962 21.4535C248.529 20.8193 249.457 20.7664 250.024 21.3478C250.539 21.8234 250.642 22.5633 250.333 23.1446C249.25 25.2586 248.065 27.3197 246.879 29.3807L245.126 32.4459C245.075 32.6045 244.972 32.7102 244.92 32.8687C246.57 33.2915 248.168 33.7672 249.766 34.3485C251.055 34.7713 252.292 35.2998 253.529 35.8811C254.766 36.4624 256.004 37.0438 257.138 37.7308C257.705 38.1536 257.911 39.052 257.55 39.7919Z" fill="white"/>
<path d="M228.578 36.4096C228.372 36.5153 228.166 36.621 227.908 36.621C225.382 37.0966 222.908 37.678 220.485 38.3121C219.248 38.6292 218.01 38.9992 216.773 39.3691C215.536 39.6862 214.299 40.109 213.061 40.4789C212.288 40.6903 211.463 40.2675 211.257 39.4219C211.051 38.7349 211.36 38.0479 211.927 37.6779C213.061 36.9909 214.299 36.4096 215.536 35.8283C216.773 35.2469 218.01 34.7713 219.299 34.2957C220.897 33.7143 222.495 33.2387 224.145 32.8159C224.093 32.6573 223.99 32.5517 223.939 32.3931L222.186 29.3279C221 27.2668 219.815 25.2057 218.732 23.0918C218.371 22.3519 218.629 21.4535 219.351 21.0307C219.969 20.7136 220.691 20.8721 221.103 21.3478C222.701 23.1446 224.196 25.0472 225.588 27.0026C226.98 29.0108 228.321 30.9662 229.506 33.2387C230.022 34.4542 229.609 35.8283 228.578 36.4096Z" fill="white"/>
<path d="M243.838 64.6308C243.167 64.895 242.446 64.6308 242.085 63.9966C241.26 62.6225 240.487 61.2485 239.662 59.8744L237.342 55.6994L235.022 51.5772C234.868 51.2601 234.662 50.943 234.507 50.6259C234.301 50.943 234.146 51.2601 233.94 51.5772L231.62 55.7523L229.249 59.9273C228.424 61.3013 227.651 62.6754 226.826 64.0495C226.413 64.7365 225.485 64.9479 224.815 64.5251C224.197 64.1551 223.99 63.3624 224.248 62.7282C224.815 61.1956 225.434 59.7159 226.052 58.2361C226.671 56.7564 227.341 55.2766 228.011 53.7969C228.733 52.3171 229.403 50.8902 230.177 49.4104C230.95 47.9835 231.723 46.5566 232.651 45.0769V45.024C233.321 44.0199 234.662 43.7557 235.641 44.4427C235.899 44.6012 236.105 44.8655 236.26 45.0769C237.188 46.5566 237.961 47.9835 238.734 49.4104C239.456 50.8373 240.229 52.3171 240.899 53.7969C241.569 55.2766 242.291 56.7564 242.91 58.1833C243.528 59.663 244.199 61.1428 244.766 62.6754C245.023 63.4681 244.611 64.3137 243.838 64.6308Z" fill="white"/>
<path d="M232.96 14.8476C232.651 13.6849 232.496 12.5751 232.393 11.4124C232.29 10.2498 232.29 9.13994 232.29 7.97727C232.342 5.70479 232.496 3.4323 233.064 1.15982C233.27 0.314246 234.095 -0.16139 234.868 0.0500041C235.436 0.208549 235.848 0.631337 235.951 1.21267C236.467 3.48515 236.621 5.75764 236.621 8.03012C236.621 9.19278 236.57 10.3026 236.467 11.4653C236.364 12.6279 236.209 13.7378 235.848 14.9004C235.59 15.746 234.765 16.2216 233.94 15.9574C233.476 15.746 233.115 15.3232 232.96 14.8476Z" fill="white"/>
<path d="M262.809 49.939C262.396 50.626 261.52 50.9431 260.798 50.6788C259.2 50.0975 257.654 49.5162 256.055 48.9877C254.457 48.4592 252.859 47.9307 251.261 47.4551C249.715 47.0323 248.168 46.6095 246.673 46.2396C247.704 48.1421 248.787 50.0975 249.869 52.0529C250.849 53.7969 251.777 55.5937 252.705 57.4434C253.581 59.2931 254.509 61.1428 255.231 63.0454C255.591 63.9438 255.179 64.9479 254.303 65.265C253.529 65.5821 252.705 65.265 252.241 64.6308L245.797 54.4839C243.632 51.1016 241.518 47.5079 239.714 43.8085C239.095 42.5402 239.611 41.0076 240.848 40.3734C241.363 40.1092 241.879 40.0563 242.394 40.162C245.9 40.7962 249.354 41.6946 252.653 42.9101C254.303 43.5443 255.952 44.2313 257.55 44.9712C259.149 45.7639 260.695 46.5567 262.19 47.5079C263.066 48.0893 263.273 49.1462 262.809 49.939Z" fill="white"/>
<path d="M229.094 43.8614C227.29 47.6136 225.176 51.1545 223.011 54.5896L216.618 64.7365C216.103 65.5293 215.072 65.7407 214.299 65.2122C213.628 64.7365 213.371 63.891 213.68 63.0982C214.453 61.1957 215.33 59.346 216.206 57.4963C217.134 55.6994 218.062 53.8497 219.041 52.1058C220.124 50.1504 221.155 48.195 222.186 46.2924C220.639 46.6624 219.093 47.0852 217.546 47.5079C215.948 47.9836 214.35 48.4592 212.752 49.0405C211.154 49.5162 209.607 50.1504 208.009 50.7317C207.133 51.0488 206.154 50.5731 205.844 49.6747C205.586 48.882 205.896 48.0364 206.566 47.6136C208.061 46.6624 209.659 45.8696 211.206 45.0769C212.804 44.337 214.402 43.5972 216.103 43.0158C219.454 41.7475 222.856 40.849 226.362 40.2149C227.702 40.0035 228.991 40.9019 229.249 42.2759C229.403 42.8573 229.3 43.3858 229.094 43.8614Z" fill="white"/>
<path d="M213.68 55.3823C213.061 56.4393 212.34 57.3377 211.618 58.2362C210.845 59.1346 210.071 59.9802 209.247 60.7729C207.597 62.3583 205.947 63.9438 204.091 65.3178C203.421 65.7935 202.493 65.6349 201.978 64.9479C201.617 64.4723 201.617 63.8381 201.875 63.3096C203.009 61.1428 204.555 59.2931 206.153 57.602C206.978 56.7564 207.855 55.9637 208.783 55.1709C209.71 54.4311 210.638 53.744 211.721 53.2155C212.494 52.8456 213.371 53.1627 213.783 53.9026C213.989 54.3254 213.989 54.9067 213.68 55.3823Z" fill="white"/>
<path d="M257.137 53.1626C258.22 53.6911 259.2 54.3781 260.127 55.118C261.055 55.8578 261.932 56.6506 262.705 57.4961C264.355 59.1873 265.85 61.037 267.035 63.2038C267.448 63.9437 267.19 64.8949 266.468 65.2649C265.953 65.582 265.334 65.4763 264.87 65.1592C262.963 63.7851 261.313 62.2525 259.663 60.6142C258.839 59.8215 258.065 58.9759 257.292 58.1303C256.519 57.2319 255.797 56.3335 255.179 55.2765C254.715 54.5366 254.972 53.5854 255.694 53.1626C256.106 52.9512 256.674 52.9512 257.137 53.1626Z" fill="white"/>
<path d="M246.415 13.2622C244.972 16.3803 243.374 19.3927 241.724 22.3522C240.074 25.3117 238.373 28.2712 236.569 31.1779C236.105 31.9177 235.28 32.3405 234.455 32.3405C233.579 32.3405 232.806 31.8649 232.342 31.125C230.589 28.1655 228.888 25.2588 227.238 22.2993C226.413 20.8196 225.588 19.3398 224.815 17.8072C224.042 16.2746 223.217 14.7949 222.495 13.2094C222.083 12.3638 222.444 11.3069 223.269 10.9369C223.99 10.567 224.867 10.7784 225.331 11.4126C226.362 12.7866 227.29 14.2135 228.269 15.5876C229.249 17.0145 230.176 18.3885 231.104 19.8155C232.239 21.5066 233.321 23.2506 234.404 24.9946C235.486 23.2506 236.569 21.5066 237.703 19.8155C239.559 16.9616 241.466 14.1607 243.58 11.4654C244.147 10.7255 245.229 10.567 245.951 11.1483C246.57 11.6768 246.724 12.5224 246.415 13.2622Z" fill="white"/>
<!-- Code injected by live-server -->
<script>
	// <![CDATA[  <-- For SVG support
	if ('WebSocket' in window) {
		(function () {
			function refreshCSS() {
				var sheets = [].slice.call(document.getElementsByTagName("link"));
				var head = document.getElementsByTagName("head")[0];
				for (var i = 0; i < sheets.length; ++i) {
					var elem = sheets[i];
					var parent = elem.parentElement || head;
					parent.removeChild(elem);
					var rel = elem.rel;
					if (elem.href && typeof rel != "string" || rel.length == 0 || rel.toLowerCase() == "stylesheet") {
						var url = elem.href.replace(/(&|\?)_cacheOverride=\d+/, '');
						elem.href = url + (url.indexOf('?') >= 0 ? '&' : '?') + '_cacheOverride=' + (new Date().valueOf());
					}
					parent.appendChild(elem);
				}
			}
			var protocol = window.location.protocol === 'http:' ? 'ws://' : 'wss://';
			var address = protocol + window.location.host + window.location.pathname + '/ws';
			var socket = new WebSocket(address);
			socket.onmessage = function (msg) {
				if (msg.data == 'reload') window.location.reload();
				else if (msg.data == 'refreshcss') refreshCSS();
			};
			if (sessionStorage && !sessionStorage.getItem('IsThisFirstTime_Log_From_LiveServer')) {
				console.log('Live reload enabled.');
				sessionStorage.setItem('IsThisFirstTime_Log_From_LiveServer', true);
			}
		})();
	}
	else {
		console.error('Upgrade your browser. This Browser is NOT supported WebSocket for Live-Reloading.');
	}
	// ]]>
</script>
</svg>
